<?xml version="1.0" encoding="UTF-8"?>
<svg version="1.1" xmlns="http://www.w3.org/2000/svg" width="458" height="172">
<path d="M0 0 C7.71159258 -0.09102942 15.4228818 -0.16413045 23.13486671 -0.20724869 C26.71739581 -0.22796242 30.29953256 -0.25597494 33.88183594 -0.30175781 C37.35080084 -0.34580547 40.81939282 -0.36925832 44.28861618 -0.37950897 C46.2303474 -0.39029873 48.17193239 -0.42142596 50.11343384 -0.45318604 C66.37922742 -0.45721345 80.29651304 4.75413738 92.63671875 15.2890625 C94 17 94 17 94 21 C93.23816406 21.20753906 92.47632812 21.41507813 91.69140625 21.62890625 C83.2175773 24.15730215 77.23389459 27.76610541 71 34 C68.34455251 33.7129246 66.23332779 33.10874742 63.8125 31.98046875 C56.33632 29.37418933 46.44651158 29.77091012 39.3125 33.1875 C32.24915883 37.40424381 26.87024271 43.54704116 23.6875 51.125 C21.79479234 61.79298863 22.32436285 71.17001864 28.54296875 80.25390625 C33.12997878 85.95355487 38.15512488 88.71837496 45 91 C52.98283211 91.58387621 60.12169747 91.93246661 67.16796875 87.6796875 C69 87 69 87 71 87.69921875 C73.03159445 89.02054873 74.92060588 90.42321408 76.8125 91.9375 C80.39733145 94.68833689 83.77903764 96.41713911 88 98 C88.28961496 102.85610204 88.21076537 107.27077116 87 112 C83.83894144 115.48058795 80.3019852 117.20240463 76 119 C75.19949219 119.34417969 74.39898437 119.68835938 73.57421875 120.04296875 C58.86332257 125.30922234 40.89596508 123.93604846 26.84375 117.4765625 C14.3728979 111.00131237 5.56827895 103.50914021 -1 91 C-1.57041016 89.92105469 -1.57041016 89.92105469 -2.15234375 88.8203125 C-10.06350834 72.52032811 -9.30432214 55.84219073 -4 39 C-2.8671875 36.5390625 -2.8671875 36.5390625 -2 35 C-3.32 34.67 -4.64 34.34 -6 34 C-6.02685412 31.68756208 -6.04632841 29.3750373 -6.0625 27.0625 C-6.07410156 25.77472656 -6.08570312 24.48695312 -6.09765625 23.16015625 C-6 20 -6 20 -5 19 C-2.30345146 18.92680379 0.36691458 18.90757463 3.0625 18.9375 C3.82111328 18.94201172 4.57972656 18.94652344 5.36132812 18.95117188 C7.24091871 18.9629932 9.12046899 18.98092922 11 19 C11 18.34 11 17.68 11 17 C9.741875 16.855625 8.48375 16.71125 7.1875 16.5625 C4.57332877 16.26251314 2.52560108 15.84186703 0 15 C0 10.05 0 5.1 0 0 Z " fill="#177BE2" transform="translate(32,24)"/>
<path d="M0 0 C5.28 0 10.56 0 16 0 C16.86375254 4.3187627 17.14215135 8.17291462 17.12939453 12.52832031 C17.13114685 13.26871552 17.13289917 14.00911072 17.13470459 14.77194214 C17.13908898 17.20736059 17.13619837 19.64270587 17.1328125 22.078125 C17.13348623 23.77252211 17.13445684 25.46691913 17.13571167 27.16131592 C17.13718377 30.70520959 17.13504868 34.24907801 17.13037109 37.79296875 C17.12465664 42.34513976 17.1279667 46.89725204 17.13394356 51.44942093 C17.13754749 54.94427945 17.13641167 58.43912391 17.13381577 61.93398285 C17.13314693 63.61339067 17.13397341 65.29279976 17.13629532 66.97220612 C17.13882096 69.3112581 17.13498334 71.6502131 17.12939453 73.98925781 C17.13141876 74.68846344 17.13344299 75.38766907 17.13552856 76.10806274 C17.11426646 80.88573354 17.11426646 80.88573354 16 82 C13.30345146 82.07319621 10.63308542 82.09242537 7.9375 82.0625 C7.17888672 82.05798828 6.42027344 82.05347656 5.63867188 82.04882812 C3.75908129 82.0370068 1.87953101 82.01907078 0 82 C-0.33 80.68 -0.66 79.36 -1 78 C-1.66 78.66 -2.32 79.32 -3 80 C-10.70650827 83.71054102 -19.1514189 84.56944769 -27.375 81.8125 C-35.93407449 77.96711871 -39.71251037 71.67073478 -43.1171875 63.23046875 C-45.50219828 54.50301779 -45.31032921 43.35452016 -41.32421875 35.14453125 C-36.73451292 27.71164482 -31.45949315 22.87249899 -22.9921875 20.41796875 C-16.17896308 18.98852755 -10.28543322 20.29738769 -4 23 C-3.01 23.66 -2.02 24.32 -1 25 C-0.67 16.75 -0.34 8.5 0 0 Z M-25.8125 42.1875 C-27.99680915 47.36086377 -28.2502692 52.15426464 -27.5 57.6875 C-25.5154842 62.0699724 -23.30065854 64.766814 -19 67 C-13.97343023 68.04025377 -10.18954093 67.56232844 -5.5625 65.375 C-1.05200742 61.19454346 0.18070907 57.60951228 0.4375 51.5625 C0.2694151 46.19109117 -0.65904824 43.22014959 -4 39 C-7.8919573 36.25793917 -11.36751918 35.45176467 -16.04296875 35.6484375 C-20.36343694 36.42456951 -23.09216059 38.90433175 -25.8125 42.1875 Z " fill="#021032" transform="translate(276,32)"/>
<path d="M0 0 C6.93359375 -0.09765625 6.93359375 -0.09765625 9 0 C10.96822886 1.96822886 10.66248381 5.34808709 11 8 C12.134375 7.979375 13.26875 7.95875 14.4375 7.9375 C18 8 18 8 19 9 C19.14115161 11.67058851 19.04247107 14.32432238 19 17 C16.36 17 13.72 17 11 17 C10.505 14.03 10.505 14.03 10 11 C8.35 10.67 6.7 10.34 5 10 C5 11.65 5 13.3 5 15 C6.65 15.33 8.3 15.66 10 16 C10 18.97 10 21.94 10 25 C8.21142578 25.09087891 8.21142578 25.09087891 6.38671875 25.18359375 C4.82030075 25.26801149 3.25389512 25.35265887 1.6875 25.4375 C0.50897461 25.49647461 0.50897461 25.49647461 -0.69335938 25.55664062 C-1.45068359 25.59853516 -2.20800781 25.64042969 -2.98828125 25.68359375 C-4.03302612 25.73858032 -4.03302612 25.73858032 -5.09887695 25.79467773 C-7.2216572 25.95581153 -7.2216572 25.95581153 -10 27 C-10.70620632 28.31281943 -11.36371652 29.65190299 -12 31 C-13.4305846 32.95807815 -14.89216752 34.89368521 -16.375 36.8125 C-19.62224771 41.0755534 -22.46933919 45.27609981 -25 50 C-26.8299327 53.1137385 -28.67038369 56.22111851 -30.51171875 59.328125 C-32.75166741 63.34945015 -33.1613971 66.4409152 -33.31640625 70.98046875 C-33.37924805 72.72553711 -33.37924805 72.72553711 -33.44335938 74.50585938 C-33.48267578 75.72080078 -33.52199219 76.93574219 -33.5625 78.1875 C-33.62727539 80.02731445 -33.62727539 80.02731445 -33.69335938 81.90429688 C-33.7995309 84.93608381 -33.90157952 87.96795315 -34 91 C-36.81256281 91.02684312 -39.62487241 91.04676188 -42.4375 91.0625 C-43.64116211 91.07506836 -43.64116211 91.07506836 -44.86914062 91.08789062 C-46.91295221 91.0965143 -48.95683902 91.0522815 -51 91 C-51.495 90.505 -51.495 90.505 -52 90 C-51.91517671 88.05859496 -51.77169892 86.11972805 -51.60546875 84.18359375 C-50.45209742 65.6713155 -53.10004882 54.45034575 -64.01464844 38.89208984 C-67.36279619 34.01479541 -70.31816625 28.91154354 -73.3125 23.8125 C-73.86897217 22.89726563 -74.42544434 21.98203125 -74.9987793 21.0390625 C-75.51093994 20.18699219 -76.02310059 19.33492187 -76.55078125 18.45703125 C-77.00106689 17.71428955 -77.45135254 16.97154785 -77.9152832 16.20629883 C-79.09399783 13.80880972 -79.58921033 11.63038366 -80 9 C-76.93372294 8.78334451 -73.88272762 8.62540682 -70.8125 8.5 C-69.94818359 8.43296875 -69.08386719 8.3659375 -68.19335938 8.296875 C-61.95514501 8.10566536 -61.95514501 8.10566536 -59.50830078 10.39672852 C-58.15185871 12.53186881 -57.08422544 14.71431155 -56 17 C-54.91146426 18.93169169 -53.81178668 20.85713227 -52.703125 22.77734375 C-51.55023759 24.82969343 -50.39922569 26.88309768 -49.25 28.9375 C-48.09003618 31.00995178 -46.92865693 33.08161219 -45.765625 35.15234375 C-45.25805664 36.05976318 -44.75048828 36.96718262 -44.22753906 37.90209961 C-43.16741858 39.91698127 -43.16741858 39.91698127 -42 41 C-41.39526855 39.86570557 -41.39526855 39.86570557 -40.77832031 38.70849609 C-39.26743067 35.87807302 -37.75377272 33.04915283 -36.23828125 30.22119141 C-35.58549149 29.00172595 -34.93377767 27.78168385 -34.28320312 26.56103516 C-33.34274412 24.79695331 -32.39796765 23.03517536 -31.453125 21.2734375 C-30.88754883 20.21560059 -30.32197266 19.15776367 -29.73925781 18.06787109 C-29.16530273 17.05547363 -28.59134766 16.04307617 -28 15 C-27.38511719 13.89269531 -26.77023437 12.78539062 -26.13671875 11.64453125 C-24 9 -24 9 -21.34277344 8.31884766 C-20.35825195 8.35026855 -19.37373047 8.38168945 -18.359375 8.4140625 C-17.28945313 8.43339844 -16.21953125 8.45273437 -15.1171875 8.47265625 C-14.00601563 8.52292969 -12.89484375 8.57320312 -11.75 8.625 C-10.06003906 8.66560547 -10.06003906 8.66560547 -8.3359375 8.70703125 C-5.55535763 8.77772396 -2.77864641 8.8763496 0 9 C0 6.03 0 3.06 0 0 Z " fill="#031232" transform="translate(377,23)"/>
<path d="M0 0 C6.89963025 7.77670189 9.63083348 16.65721657 9.35546875 26.9375 C8.52530072 34.08971687 5.79463593 41.59066715 1 47 C-8.83617068 54.2232032 -15.80493454 55.9238686 -28 55 C-35.2170152 53.36335448 -41.20824088 49.63297906 -46 44 C-51.67737234 34.83429192 -53.70118529 25.73731866 -51.3515625 15.05078125 C-48.47301271 6.23060946 -43.26771578 -0.43886273 -35.1484375 -5.02734375 C-23.48660203 -10.30697472 -9.75227045 -8.26822929 0 0 Z M-33.875 14.5 C-35.94589267 20.94277719 -36.26305177 27.42878746 -33.25 33.5625 C-30.34984156 36.70433831 -28.40626558 38.54214609 -24.3125 39.875 C-19.70763365 40.04876854 -16.05658025 39.20918127 -12 37 C-7.6185162 31.97732345 -7.43018962 27.35622951 -7.68359375 20.80859375 C-8.26411959 15.65553101 -9.82334938 13.06458865 -13.625 9.625 C-21.52524635 5.82117769 -28.5154613 7.3539484 -33.875 14.5 Z " fill="#031031" transform="translate(217,60)"/>
<path d="M0 0 C4.38911815 3.94053093 6.74020661 9.01064251 7.06947327 14.90142822 C7.06725266 15.67420105 7.06503204 16.44697388 7.06274414 17.24316406 C7.06266861 18.12377502 7.06259308 19.00438599 7.06251526 19.91168213 C7.05735397 20.85348328 7.05219269 21.79528442 7.046875 22.765625 C7.04546005 23.73659119 7.0440451 24.70755737 7.04258728 25.70794678 C7.03699538 28.80532935 7.02444434 31.90263932 7.01171875 35 C7.0067027 37.10156146 7.00213998 39.20312404 6.99804688 41.3046875 C6.9870286 46.45315292 6.96976949 51.60156416 6.94921875 56.75 C1.66921875 56.75 -3.61078125 56.75 -9.05078125 56.75 C-9.05078125 56.09 -9.05078125 55.43 -9.05078125 54.75 C-10.04078125 54.255 -10.04078125 54.255 -11.05078125 53.75 C-10.39078125 53.75 -9.73078125 53.75 -9.05078125 53.75 C-9.1448451 49.03571877 -9.25105189 44.32191939 -9.36816406 39.6081543 C-9.40627544 38.00699204 -9.44115838 36.40574937 -9.47265625 34.80444336 C-9.51869736 32.49303586 -9.57662333 30.18217356 -9.63671875 27.87109375 C-9.64826996 27.16351425 -9.65982117 26.45593475 -9.67172241 25.72691345 C-9.80845825 21.04618873 -10.61458211 17.16190296 -12.05078125 12.75 C-19.17249925 11.58900696 -19.17249925 11.58900696 -26.11328125 12.875 C-29.97977959 16.61677259 -30.28929906 20.72083741 -30.42984009 25.9577179 C-30.4471669 27.13300301 -30.4471669 27.13300301 -30.46484375 28.33203125 C-30.4842099 29.14621017 -30.50357605 29.9603891 -30.52352905 30.79924011 C-30.58306877 33.38688852 -30.62960708 35.97458203 -30.67578125 38.5625 C-30.71398465 40.32228449 -30.75303775 42.08205074 -30.79296875 43.84179688 C-30.88874907 48.14438234 -30.9728741 52.4470553 -31.05078125 56.75 C-33.69668139 56.77684679 -36.34231221 56.79676357 -38.98828125 56.8125 C-39.74302734 56.82087891 -40.49777344 56.82925781 -41.27539062 56.83789062 C-43.20072438 56.84652441 -45.12613706 56.80224333 -47.05078125 56.75 C-48.05078125 55.75 -48.05078125 55.75 -48.17103577 53.38987732 C-48.16881516 52.34396927 -48.16659454 51.29806122 -48.16430664 50.22045898 C-48.16423111 49.03931015 -48.16415558 47.85816132 -48.16407776 46.64122009 C-48.15891647 45.3558284 -48.15375519 44.07043671 -48.1484375 42.74609375 C-48.14702255 41.43794205 -48.1456076 40.12979034 -48.14414978 38.78199768 C-48.14032535 35.29837141 -48.13049571 31.81478661 -48.1194458 28.33117676 C-48.10923007 24.77873292 -48.10465181 21.22628241 -48.09960938 17.67382812 C-48.08887337 10.69920168 -48.07179785 3.72460283 -48.05078125 -3.25 C-45.42550936 -3.30382106 -42.80133412 -3.34358313 -40.17578125 -3.375 C-39.42941406 -3.39175781 -38.68304688 -3.40851562 -37.9140625 -3.42578125 C-35.95883664 -3.4433959 -34.00336104 -3.35320189 -32.05078125 -3.25 C-31.05078125 -2.25 -30.05078125 -1.25 -29.05078125 -0.25 C-28.01953125 -0.889375 -26.98828125 -1.52875 -25.92578125 -2.1875 C-17.05120845 -7.19275906 -8.04111975 -5.83788101 0 0 Z " fill="#03112F" transform="translate(422.05078125,57.25)"/>
<path d="M0 0 C6.44563196 4.31057961 10.96289511 9.42139998 13 17 C13 18.32 13 19.64 13 21 C10.3941111 21.13494246 7.79517889 21.23402299 5.1875 21.3125 C4.44951172 21.35439453 3.71152344 21.39628906 2.95117188 21.43945312 C0.79296875 21.48828125 0.79296875 21.48828125 -3 21 C-4.76171875 18.60546875 -4.76171875 18.60546875 -6 16 C-10.03830901 13.26650249 -14.29559726 13.46980792 -19 14 C-22.37319414 15.31994553 -23.66115552 16.54431259 -25.8125 19.4375 C-27.92402207 25.77206621 -27.79894394 32.1537622 -26 38.5625 C-23.15584549 42.02881331 -20.41341229 43.31924836 -16 44 C-12.72789935 43.91833359 -9.96498934 43.40996558 -7 42 C-5.92817429 40.42378573 -4.85648331 38.84745893 -3.79296875 37.265625 C0.51252407 34.2264536 7.91615541 35.65468225 13 36 C12.00266627 44.35765663 9.44515136 49.45417208 3 55 C-5.07314818 60.40028155 -12.43673193 60.73404544 -22 60 C-28.63140684 58.43387828 -34.60564332 55.27770064 -39 50 C-45.00544805 40.14170606 -46.69313264 30.41174178 -44.38671875 18.953125 C-41.94193083 11.3279715 -37.61135901 4.73349853 -30.62109375 0.58984375 C-20.71871441 -3.96166175 -10.04637354 -4.75964915 0 0 Z " fill="#021031" transform="translate(148,55)"/>
<path d="M0 0 C7.71152567 -0.09343195 15.42291422 -0.16413063 23.13486671 -0.20724869 C26.71739581 -0.22796242 30.29953256 -0.25597494 33.88183594 -0.30175781 C37.35080084 -0.34580547 40.81939282 -0.36925832 44.28861618 -0.37950897 C46.2303474 -0.39029873 48.17193239 -0.42142596 50.11343384 -0.45318604 C66.37922742 -0.45721345 80.29651304 4.75413738 92.63671875 15.2890625 C94 17 94 17 94 21 C93.23816406 21.20753906 92.47632812 21.41507813 91.69140625 21.62890625 C83.2175773 24.15730215 77.23389459 27.76610541 71 34 C66.13363085 33.70506854 61.23826564 31.320538 57 29 C56.505 28.01 56.505 28.01 56 27 C53.9933738 26.06648259 51.94274465 25.22644585 49.875 24.4375 C48.75867188 24.00308594 47.64234375 23.56867187 46.4921875 23.12109375 C39.01349781 20.72021686 31.34999647 20.71942124 23.5625 20.4375 C22.44939453 20.39431641 21.33628906 20.35113281 20.18945312 20.30664062 C17.45974156 20.20120112 14.72994857 20.09907971 12 20 C12.33 18.68 12.66 17.36 13 16 C12.14535156 16.01160156 11.29070313 16.02320312 10.41015625 16.03515625 C9.30542969 16.04417969 8.20070313 16.05320312 7.0625 16.0625 C5.96035156 16.07410156 4.85820313 16.08570312 3.72265625 16.09765625 C1 16 1 16 0 15 C-0.07313567 12.46950598 -0.09247527 9.96695163 -0.0625 7.4375 C-0.05798828 6.72658203 -0.05347656 6.01566406 -0.04882812 5.28320312 C-0.03700864 3.52209987 -0.01907263 1.76103964 0 0 Z " fill="#218AEE" transform="translate(32,24)"/>
<path d="M0 0 C0.33 0 0.66 0 1 0 C1.08636719 0.68964844 1.17273437 1.37929687 1.26171875 2.08984375 C2.74651047 12.02023978 5.96505113 19.20786951 13.921875 25.55859375 C21.57195141 30.86475577 29.87309556 30.94990314 39 30 C41.60896946 29.10271631 43.81142831 28.10197818 46.16796875 26.6796875 C48 26 48 26 50 26.69921875 C52.03159445 28.02054873 53.92060588 29.42321408 55.8125 30.9375 C59.39733145 33.68833689 62.77903764 35.41713911 67 37 C67.28961496 41.85610204 67.21076537 46.27077116 66 51 C62.83894144 54.48058795 59.3019852 56.20240463 55 58 C54.19949219 58.34417969 53.39898437 58.68835938 52.57421875 59.04296875 C41.99864352 62.82884694 29.98775329 62.48483153 19 61 C19 60.01 19 59.02 19 58 C18.195625 57.6596875 18.195625 57.6596875 17.375 57.3125 C7.40077287 51.80042711 2.3518307 41.58472853 -1 31 C-1.391875 29.845 -1.78375 28.69 -2.1875 27.5 C-3.15984895 23.35515659 -3.24904383 19.17695314 -3.3125 14.9375 C-3.33014404 14.26460937 -3.34778809 13.59171875 -3.3659668 12.8984375 C-3.35914961 7.83141061 -2.19467362 4.4530449 0 0 Z " fill="#1268C1" transform="translate(53,85)"/>
<path d="M0 0 C101.97 0 203.94 0 309 0 C308.67 1.65 308.34 3.3 308 5 C206.36 5 104.72 5 0 5 C0 3.35 0 1.7 0 0 Z " fill="#2A94E5" transform="translate(126,124)"/>
<path d="M0 0 C6.93359375 -0.09765625 6.93359375 -0.09765625 9 0 C10.96822886 1.96822886 10.66248381 5.34808709 11 8 C12.134375 7.979375 13.26875 7.95875 14.4375 7.9375 C18 8 18 8 19 9 C19.14115161 11.67058851 19.04247107 14.32432238 19 17 C16.36 17 13.72 17 11 17 C10.505 14.03 10.505 14.03 10 11 C7.525 10.505 7.525 10.505 5 10 C5 11.65 5 13.3 5 15 C7.475 15.495 7.475 15.495 10 16 C10 18.97 10 21.94 10 25 C8.21142578 25.09087891 8.21142578 25.09087891 6.38671875 25.18359375 C4.82030075 25.26801149 3.25389512 25.35265887 1.6875 25.4375 C0.50897461 25.49647461 0.50897461 25.49647461 -0.69335938 25.55664062 C-1.45068359 25.59853516 -2.20800781 25.64042969 -2.98828125 25.68359375 C-4.03302612 25.73858032 -4.03302612 25.73858032 -5.09887695 25.79467773 C-7.2216572 25.95581153 -7.2216572 25.95581153 -10 27 C-10.70620632 28.31281943 -11.36371652 29.65190299 -12 31 C-13.4305846 32.95807815 -14.89216752 34.89368521 -16.375 36.8125 C-19.62224771 41.0755534 -22.46933919 45.27609981 -25 50 C-26.8299327 53.1137385 -28.67038369 56.22111851 -30.51171875 59.328125 C-32.75166741 63.34945015 -33.1613971 66.4409152 -33.31640625 70.98046875 C-33.35830078 72.14384766 -33.40019531 73.30722656 -33.44335938 74.50585938 C-33.48267578 75.72080078 -33.52199219 76.93574219 -33.5625 78.1875 C-33.60568359 79.41404297 -33.64886719 80.64058594 -33.69335938 81.90429688 C-33.7995309 84.93608381 -33.90157952 87.96795315 -34 91 C-36.81256281 91.02684312 -39.62487241 91.04676188 -42.4375 91.0625 C-43.23994141 91.07087891 -44.04238281 91.07925781 -44.86914062 91.08789062 C-46.91295221 91.0965143 -48.95683902 91.0522815 -51 91 C-52 90 -52 90 -52.09765625 87.93359375 C-52.08605469 87.10988281 -52.07445312 86.28617187 -52.0625 85.4375 C-52.05347656 84.61121094 -52.04445313 83.78492187 -52.03515625 82.93359375 C-52.02355469 82.29550781 -52.01195312 81.65742187 -52 81 C-51.34 81 -50.68 81 -50 81 C-49.59587891 79.47826172 -49.59587891 79.47826172 -49.18359375 77.92578125 C-45.34295318 64.55230182 -37.41648733 52.61794567 -30 41 C-29.33097656 39.94039062 -28.66195313 38.88078125 -27.97265625 37.7890625 C-23.44913523 30.80772985 -18.43757667 24.23573461 -13.30322266 17.69702148 C-12.48990479 16.65396851 -12.48990479 16.65396851 -11.66015625 15.58984375 C-11.17168213 14.96972412 -10.68320801 14.34960449 -10.17993164 13.71069336 C-8.81028202 11.89473021 -8.81028202 11.89473021 -8 9 C-5.36 9 -2.72 9 0 9 C0 6.03 0 3.06 0 0 Z " fill="#268DF2" transform="translate(377,23)"/>
<path d="M0 0 C0.33 0 0.66 0 1 0 C1 2.64 1 5.28 1 8 C1.99 8.33 2.98 8.66 4 9 C2.9075289 11.31669751 1.73199548 13.40231625 0.30859375 15.5390625 C-6.77853133 27.2276404 -6.11894063 39.65154855 -6 53 C-8.81256281 53.02684312 -11.62487241 53.04676188 -14.4375 53.0625 C-15.23994141 53.07087891 -16.04238281 53.07925781 -16.86914062 53.08789062 C-18.91295221 53.0965143 -20.95683902 53.0522815 -23 53 C-24 52 -24 52 -24.09765625 49.93359375 C-24.08605469 49.10988281 -24.07445312 48.28617188 -24.0625 47.4375 C-24.05347656 46.61121094 -24.04445313 45.78492188 -24.03515625 44.93359375 C-24.02355469 44.29550781 -24.01195312 43.65742187 -24 43 C-23.34 43 -22.68 43 -22 43 C-21.73058594 41.98550781 -21.46117187 40.97101563 -21.18359375 39.92578125 C-17.04078601 25.50012671 -8.25127668 12.37691503 0 0 Z " fill="#288BEB" transform="translate(349,61)"/>
<path d="M0 0 C101.97 0 203.94 0 309 0 C308.67 1.65 308.34 3.3 308 5 C299.28217363 5.16311941 290.68761489 4.65655389 282 4 C282 3.67 282 3.34 282 3 C290.25 3 298.5 3 307 3 C307 2.34 307 1.68 307 1 C206.02 1 105.04 1 1 1 C2.00047528 2.22439745 2.00047528 2.22439745 3.99926758 2.09765625 C4.87220459 2.08605469 5.7451416 2.07445313 6.64453125 2.0625 C7.62292969 2.05412109 8.60132813 2.04574219 9.609375 2.03710938 C10.66640625 2.02486328 11.7234375 2.01261719 12.8125 2 C23.90993346 1.92655128 34.92595651 2.31399731 46 3 C46 3.33 46 3.66 46 4 C30.65439298 4.90363196 15.37054735 5.1243417 0 5 C0 3.35 0 1.7 0 0 Z " fill="#4C9EDC" transform="translate(126,124)"/>
<path d="M0 0 C6.44563196 4.31057961 10.96289511 9.42139998 13 17 C13 18.32 13 19.64 13 21 C10.3941111 21.13494246 7.79517889 21.23402299 5.1875 21.3125 C4.44951172 21.35439453 3.71152344 21.39628906 2.95117188 21.43945312 C0.79296875 21.48828125 0.79296875 21.48828125 -3 21 C-4.76171875 18.60546875 -4.76171875 18.60546875 -6 16 C-10.03353465 13.26973422 -14.29995211 13.46092641 -19 14 C-23.1730723 15.76196386 -25.35448237 18.37466103 -28 22 C-27.51946314 17.67516825 -26.34218019 15.76923502 -23 13 C-17.18648966 9.56308194 -10.38855513 10.68952715 -4 12 C-3.71125 11.05125 -3.4225 10.1025 -3.125 9.125 C-2 6 -2 6 0 4 C-6.702446 -0.28211828 -14.94682647 -0.76835264 -22.6875 0.5625 C-29.79498678 2.47506008 -35.88897611 6.92283425 -40 13 C-39.33724231 7.77854414 -37.4018547 5.89071331 -33.4375 2.6484375 C-23.33566593 -4.18325157 -11.04120687 -5.23096923 0 0 Z " fill="#091534" transform="translate(148,55)"/>
<path d="M0 0 C6.93359375 -0.09765625 6.93359375 -0.09765625 9 0 C10.96822886 1.96822886 10.66248381 5.34808709 11 8 C12.134375 7.979375 13.26875 7.95875 14.4375 7.9375 C18 8 18 8 19 9 C19.14115161 11.67058851 19.04247107 14.32432238 19 17 C16.36 17 13.72 17 11 17 C10.67 15.02 10.34 13.04 10 11 C7.525 10.505 7.525 10.505 5 10 C5 11.65 5 13.3 5 15 C6.65 15.33 8.3 15.66 10 16 C10 18.97 10 21.94 10 25 C4.06 25.33 -1.88 25.66 -8 26 C-5.75 21.5 -5.75 21.5 -2 20 C-2 19.34 -2 18.68 -2 18 C0.5 16 0.5 16 3 14 C3 13.34 3 12.68 3 12 C0.03 11.67 -2.94 11.34 -6 11 C-6 10.34 -6 9.68 -6 9 C-4.02 9 -2.04 9 0 9 C0 6.03 0 3.06 0 0 Z " fill="#5E9FDB" transform="translate(377,23)"/>
<path d="M0 0 C5.28 0 10.56 0 16 0 C15.0638637 3.74454519 14.4006324 5.11669984 12.15625 8.0546875 C11.57311035 8.8283667 10.9899707 9.6020459 10.38916016 10.39916992 C9.7657373 11.21619385 9.14231445 12.03321777 8.5 12.875 C2.61821527 20.7030852 -2.86204007 28.66780572 -8 37 C-9.078125 33.234375 -9.078125 33.234375 -8.375 31.125 C-7.79528866 27.83996905 -9.40402761 25.8089114 -11 23 C-9.73046875 21.53515625 -8.4609375 20.0703125 -7.19140625 18.60546875 C-5.79128769 16.89287029 -5.79128769 16.89287029 -5 14 C-4.34 14 -3.68 14 -3 14 C-3 13.34 -3 12.68 -3 12 C-3.66 11.67 -4.32 11.34 -5 11 C-3.6875 9.5 -3.6875 9.5 -2 8 C-1.01 8 -0.02 8 1 8 C1.66 6.35 2.32 4.7 3 3 C3.66 3 4.32 3 5 3 C5 3.99 5 4.98 5 6 C5.99 5.67 6.98 5.34 8 5 C8.33 4.34 8.66 3.68 9 3 C5.7 2.67 2.4 2.34 -1 2 C-0.67 1.34 -0.34 0.68 0 0 Z " fill="#04153B" transform="translate(353,32)"/>
<path d="M0 0 C0.2475 0.639375 0.495 1.27875 0.75 1.9375 C1.96621634 4.49019039 1.96621634 4.49019039 6 5 C6 12.26 6 19.52 6 27 C2.23139506 27.75372099 -0.56668585 28.11244419 -4.3125 28.0625 C-5.19550781 28.05347656 -6.07851563 28.04445313 -6.98828125 28.03515625 C-7.65214844 28.02355469 -8.31601562 28.01195313 -9 28 C-10.35439668 25.29120665 -10.06501451 22.99066732 -10 20 C-9.34 20 -8.68 20 -8 20 C-7.79375 19.113125 -7.5875 18.22625 -7.375 17.3125 C-5.67441792 11.26042847 -2.7031624 5.6528396 0 0 Z " fill="#1C86EE" transform="translate(335,84)"/>
<path d="M0 0 C-3.33715792 1.11238597 -4.3155042 0.84050687 -7.625 0 C-12.75559336 -1.13174853 -16.8329793 -0.83339044 -22 0 C-21.34 0.33 -20.68 0.66 -20 1 C-20 1.66 -20 2.32 -20 3 C-20.66 3.66 -21.32 4.32 -22 5 C-22.33 5.66 -22.66 6.32 -23 7 C-25.64 7 -28.28 7 -31 7 C-32.125 2.25 -32.125 2.25 -31 0 C-35.29 0 -39.58 0 -44 0 C-44 18.48 -44 36.96 -44 56 C-39.38 56 -34.76 56 -30 56 C-30 56.66 -30 57.32 -30 58 C-32.47923801 58.02685095 -34.9581884 58.04676547 -37.4375 58.0625 C-38.14455078 58.07087891 -38.85160156 58.07925781 -39.58007812 58.08789062 C-41.38693559 58.09653588 -43.19387603 58.05220011 -45 58 C-46 57 -46 57 -46.12025452 54.63987732 C-46.11803391 53.59396927 -46.11581329 52.54806122 -46.11352539 51.47045898 C-46.11344986 50.28931015 -46.11337433 49.10816132 -46.11329651 47.89122009 C-46.10813522 46.6058284 -46.10297394 45.32043671 -46.09765625 43.99609375 C-46.0962413 42.68794205 -46.09482635 41.37979034 -46.09336853 40.03199768 C-46.0895441 36.54837141 -46.07971446 33.06478661 -46.06866455 29.58117676 C-46.05844882 26.02873292 -46.05387056 22.47628241 -46.04882812 18.92382812 C-46.03809212 11.94920168 -46.0210166 4.97460283 -46 -2 C-43.37472811 -2.05382106 -40.75055287 -2.09358313 -38.125 -2.125 C-37.37863281 -2.14175781 -36.63226563 -2.15851562 -35.86328125 -2.17578125 C-33.90805539 -2.1933959 -31.95257979 -2.10320189 -30 -2 C-29 -1 -28 0 -27 1 C-25.96875 0.360625 -24.9375 -0.27875 -23.875 -0.9375 C-16.35797912 -5.17709978 -7.06793466 -5.24395152 0 0 Z " fill="#0A1430" transform="translate(420,56)"/>
<path d="M0 0 C0.33 0 0.66 0 1 0 C1.08636719 0.68964844 1.17273437 1.37929687 1.26171875 2.08984375 C2.94495896 13.34747782 7.00438107 20.0579715 16 27 C12.93276207 28.53361896 10.30408233 27.54066802 7 27 C6.67 27 6.34 27 6 27 C5.67 31.62 5.34 36.24 5 41 C4.34 41 3.68 41 3 41 C-0.73835721 32.14408584 -3.15830219 24.59689144 -3.3125 14.9375 C-3.33022461 14.26444824 -3.34794922 13.59139648 -3.36621094 12.89794922 C-3.35877245 7.83110189 -2.19462871 4.45295376 0 0 Z " fill="#0D5099" transform="translate(53,85)"/>
<path d="M0 0 C0.99 0 1.98 0 3 0 C3 1.32 3 2.64 3 4 C3.99 4 4.98 4 6 4 C6 5.32 6 6.64 6 8 C5.01 8 4.02 8 3 8 C3 9.98 3 11.96 3 14 C3.99 14.33 4.98 14.66 6 15 C7.10636395 12.60931266 7.10636395 12.60931266 8 10 C7.67 9.34 7.34 8.68 7 8 C8.0625 6 8.0625 6 10 4 C13.5625 3.625 13.5625 3.625 17 4 C19.68092691 6.68092691 19.38670257 8.39167363 19.625 12.125 C19.69976562 13.22070312 19.77453125 14.31640625 19.8515625 15.4453125 C19.90054687 16.28835937 19.94953125 17.13140625 20 18 C15.59371244 19.46876252 12.49888575 20.41393552 8 19 C7.34 18.67 6.68 18.34 6 18 C6 18.66 6 19.32 6 20 C1.125 19.125 1.125 19.125 0 18 C-0.07205511 16.31391034 -0.08386068 14.62499341 -0.0625 12.9375 C-0.05347656 12.01839844 -0.04445313 11.09929687 -0.03515625 10.15234375 C-0.02355469 9.44207031 -0.01195312 8.73179687 0 8 C-0.66 8 -1.32 8 -2 8 C-2 6.68 -2 5.36 -2 4 C-1.34 4 -0.68 4 0 4 C0 2.68 0 1.36 0 0 Z M11 8 C11.33 8.66 11.66 9.32 12 10 C13.32 9.34 14.64 8.68 16 8 C14.35 8 12.7 8 11 8 Z " fill="#0E152A" transform="translate(313,136)"/>
<path d="M0 0 C2.14576637 -0.02685938 4.29162645 -0.04633088 6.4375 -0.0625 C7.63246094 -0.07410156 8.82742188 -0.08570313 10.05859375 -0.09765625 C13 0 13 0 14 1 C14.09909302 3.33160055 14.12970504 5.66629942 14.125 8 C14.12757812 9.27875 14.13015625 10.5575 14.1328125 11.875 C14 15 14 15 13 16 C10.81360547 16.07258946 8.62499611 16.08373783 6.4375 16.0625 C4.64119141 16.04896484 4.64119141 16.04896484 2.80859375 16.03515625 C1.88175781 16.02355469 0.95492188 16.01195313 0 16 C-1.16306443 12.45049966 -0.92365049 9.44176052 -0.5625 5.75 C-0.46066406 4.67234375 -0.35882813 3.5946875 -0.25390625 2.484375 C-0.17011719 1.66453125 -0.08632812 0.8446875 0 0 Z " fill="#2385E1" transform="translate(6,43)"/>
<path d="M0 0 C1.65322266 0.01740234 1.65322266 0.01740234 3.33984375 0.03515625 C4.99693359 0.04869141 4.99693359 0.04869141 6.6875 0.0625 C7.54214844 0.07410156 8.39679688 0.08570313 9.27734375 0.09765625 C9.27734375 2.07765625 9.27734375 4.05765625 9.27734375 6.09765625 C8.28734375 6.09765625 7.29734375 6.09765625 6.27734375 6.09765625 C6.27734375 5.43765625 6.27734375 4.77765625 6.27734375 4.09765625 C4.29734375 4.09765625 2.31734375 4.09765625 0.27734375 4.09765625 C0.27734375 5.41765625 0.27734375 6.73765625 0.27734375 8.09765625 C3.24734375 8.09765625 6.21734375 8.09765625 9.27734375 8.09765625 C9.27734375 9.74765625 9.27734375 11.39765625 9.27734375 13.09765625 C7.95734375 13.42765625 6.63734375 13.75765625 5.27734375 14.09765625 C5.27734375 13.43765625 5.27734375 12.77765625 5.27734375 12.09765625 C3.62734375 12.09765625 1.97734375 12.09765625 0.27734375 12.09765625 C0.27734375 13.41765625 0.27734375 14.73765625 0.27734375 16.09765625 C3.24734375 16.09765625 6.21734375 16.09765625 9.27734375 16.09765625 C9.27734375 17.41765625 9.27734375 18.73765625 9.27734375 20.09765625 C7.29824977 20.12452178 5.31905404 20.14399 3.33984375 20.16015625 C2.23769531 20.17175781 1.13554687 20.18335938 0 20.1953125 C-2.72265625 20.09765625 -2.72265625 20.09765625 -3.72265625 19.09765625 C-3.82102835 17.76722 -3.85344217 16.43172281 -3.85546875 15.09765625 C-3.85675781 14.29328125 -3.85804687 13.48890625 -3.859375 12.66015625 C-3.85550781 11.81453125 -3.85164063 10.96890625 -3.84765625 10.09765625 C-3.85152344 9.25203125 -3.85539062 8.40640625 -3.859375 7.53515625 C-3.85808594 6.73078125 -3.85679688 5.92640625 -3.85546875 5.09765625 C-3.85434082 4.35515625 -3.85321289 3.61265625 -3.85205078 2.84765625 C-3.63373968 -0.10489842 -2.97526092 0.10671668 0 0 Z " fill="#141B33" transform="translate(129.72265625,134.90234375)"/>
<path d="M0 0 C1.33998047 0.06960937 1.33998047 0.06960937 2.70703125 0.140625 C3.60808594 0.17671875 4.50914062 0.2128125 5.4375 0.25 C6.46810547 0.31960937 6.46810547 0.31960937 7.51953125 0.390625 C8.71642654 3.98131088 8.50534154 6.61766038 8.26953125 10.390625 C8.2025 11.628125 8.13546875 12.865625 8.06640625 14.140625 C7.51953125 17.390625 7.51953125 17.390625 6.1953125 19.30859375 C3.37875363 21.12721102 0.75759056 20.68499403 -2.48046875 20.390625 C-4.48046875 18.390625 -4.48046875 18.390625 -4.54296875 15.328125 C-4.52234375 14.35875 -4.50171875 13.389375 -4.48046875 12.390625 C-4.81046875 12.060625 -5.14046875 11.730625 -5.48046875 11.390625 C-5.94376827 5.2519064 -5.94376827 5.2519064 -4.2890625 2.17578125 C-2.48046875 0.390625 -2.48046875 0.390625 0 0 Z M-0.48046875 4.390625 C-1.77680496 5.45707615 -1.77680496 5.45707615 -1.54296875 7.953125 C-1.52234375 8.7575 -1.50171875 9.561875 -1.48046875 10.390625 C0.17567782 10.77281267 1.84410149 11.10457602 3.51953125 11.390625 C4.81586746 10.32417385 4.81586746 10.32417385 4.58203125 7.828125 C4.56140625 7.02375 4.54078125 6.219375 4.51953125 5.390625 C2.86338468 5.00843733 1.19496101 4.67667398 -0.48046875 4.390625 Z M-0.48046875 15.390625 C3.51953125 16.390625 3.51953125 16.390625 3.51953125 16.390625 Z " fill="#171F32" transform="translate(296.48046875,139.609375)"/>
<path d="M0 0 C0.91007813 0.00902344 1.82015625 0.01804688 2.7578125 0.02734375 C3.45648438 0.03894531 4.15515625 0.05054688 4.875 0.0625 C4.76141524 3.02168198 4.63466914 5.97926783 4.5 8.9375 C4.45359375 10.20013672 4.45359375 10.20013672 4.40625 11.48828125 C4.34824219 12.69677734 4.34824219 12.69677734 4.2890625 13.9296875 C4.2576416 14.67331543 4.2262207 15.41694336 4.19384766 16.18310547 C3.875 18.0625 3.875 18.0625 1.875 20.0625 C0 20.328125 0 20.328125 -2.125 20.3125 C-3.176875 20.32023437 -3.176875 20.32023437 -4.25 20.328125 C-6.125 20.0625 -6.125 20.0625 -8.125 18.0625 C-8.609375 15.1640625 -8.609375 15.1640625 -8.875 11.6875 C-8.97296875 10.54539063 -9.0709375 9.40328125 -9.171875 8.2265625 C-9.12565792 5.10690968 -8.87937567 3.59793333 -7.125 1.0625 C-4.60024538 -0.19987731 -2.81299534 -0.03606404 0 0 Z M-4.125 4.0625 C-5.42133621 5.12895115 -5.42133621 5.12895115 -5.1875 7.625 C-5.166875 8.429375 -5.14625 9.23375 -5.125 10.0625 C-3.46885343 10.44468767 -1.80042976 10.77645102 -0.125 11.0625 C1.17133621 9.99604885 1.17133621 9.99604885 0.9375 7.5 C0.916875 6.695625 0.89625 5.89125 0.875 5.0625 C-0.78114657 4.68031233 -2.44957024 4.34854898 -4.125 4.0625 Z M-4.125 15.0625 C-0.125 16.0625 -0.125 16.0625 -0.125 16.0625 Z " fill="#11192A" transform="translate(163.125,139.9375)"/>
<path d="M0 0 C1.91789713 0.28346278 3.83429183 0.5771028 5.75 0.875 C6.81734375 1.03742187 7.8846875 1.19984375 8.984375 1.3671875 C11.67708871 1.93223882 13.63572439 2.63422914 16 4 C16 4.66 16 5.32 16 6 C16.66 6.33 17.32 6.66 18 7 C17.10539062 7.01417969 16.21078125 7.02835938 15.2890625 7.04296875 C5.59012681 7.42554937 -1.33383048 9.05967908 -8.8125 15.375 C-9.8953125 16.674375 -9.8953125 16.674375 -11 18 C-11.86625 18.99 -12.7325 19.98 -13.625 21 C-16.64180216 25.26123304 -17.32038815 30.04892082 -18.2265625 35.109375 C-19.01225587 38.04580478 -19.64922727 39.15574736 -22 41 C-21.59060025 34.23784552 -20.43046191 28.32837252 -18 22 C-17.34 22 -16.68 22 -16 22 C-16 20.68 -16 19.36 -16 18 C-15.34 18 -14.68 18 -14 18 C-14 17.01 -14 16.02 -14 15 C-13.34 15 -12.68 15 -12 15 C-11.566875 14.071875 -11.566875 14.071875 -11.125 13.125 C-9.14924015 9.39300917 -6.88722238 8.32734423 -3 7 C-2.01 7 -1.02 7 0 7 C0 5.68 0 4.36 0 3 C-0.66 2.67 -1.32 2.34 -2 2 C-1.34 2 -0.68 2 0 2 C0 1.34 0 0.68 0 0 Z " fill="#3173BE" transform="translate(73,47)"/>
<path d="M0 0 C1.22589844 0.01353516 1.22589844 0.01353516 2.4765625 0.02734375 C3.41628906 0.04474609 3.41628906 0.04474609 4.375 0.0625 C5.44668689 6.70695869 5.56599551 12.60482901 3.375 19.0625 C0.36175805 20.56912097 -2.30786377 20.24020373 -5.625 20.0625 C-7.625 18.0625 -7.625 18.0625 -7.6875 15.375 C-7.666875 14.281875 -7.64625 13.18875 -7.625 12.0625 C-7.83125 10.86625 -8.0375 9.67 -8.25 8.4375 C-8.6284459 5.03148691 -8.61155551 3.78094438 -6.625 1.0625 C-4.21954362 -0.14022819 -2.67503047 -0.03821472 0 0 Z M-3.625 4.0625 C-4.92133621 5.12895115 -4.92133621 5.12895115 -4.6875 7.625 C-4.666875 8.429375 -4.64625 9.23375 -4.625 10.0625 C-2.96885343 10.44468767 -1.30042976 10.77645102 0.375 11.0625 C1.67133621 9.99604885 1.67133621 9.99604885 1.4375 7.5 C1.416875 6.695625 1.39625 5.89125 1.375 5.0625 C-0.28114657 4.68031233 -1.94957024 4.34854898 -3.625 4.0625 Z M-3.625 15.0625 C0.375 16.0625 0.375 16.0625 0.375 16.0625 Z " fill="#11192B" transform="translate(254.625,139.9375)"/>
<path d="M0 0 C9 0 9 0 13 2 C15.83953044 6.25929566 15.73987876 10.00382943 15 15 C13.125 18.125 13.125 18.125 10 20 C6.7 20 3.4 20 0 20 C0 13.4 0 6.8 0 0 Z M3 4 C3 7.96 3 11.92 3 16 C8.6552653 16.64261226 8.6552653 16.64261226 10.9375 14.375 C12.38619223 11.13674679 12.09003153 9.34276335 11 6 C8.14088761 3.83101819 6.71556422 4 3 4 Z " fill="#141A2D" transform="translate(269,135)"/>
<path d="M0 0 C25.33849853 -0.15414154 50.66512649 0.10486568 76 0.5 C77.15039953 0.51793673 77.15039953 0.51793673 78.32403946 0.53623581 C87.88277739 0.68574279 97.44142426 0.840451 107 1 C107 1.33 107 1.66 107 2 C98.32999796 2.1334391 89.65995791 2.26394311 80.98986244 2.39115143 C76.95969164 2.45036504 72.92953796 2.51042322 68.89941406 2.57275391 C46.59785893 2.91686487 24.30421684 3.07011615 2 3 C2 2.34 2 1.68 2 1 C1.34 0.67 0.68 0.34 0 0 Z " fill="#3496DA" transform="translate(176,126)"/>
<path d="M0 0 C3.26749267 0.55616896 3.98633274 0.92106588 5.9375 3.5 C6.60696467 6.89195433 6.54900847 10.09955571 5.9375 13.5 C3.75 15.6875 3.75 15.6875 0.9375 16.5 C-2.2407781 16.42432671 -3.54699908 15.97994914 -5.875 13.8125 C-7.4488876 10.74756099 -7.54951495 8.90910465 -7.0625 5.5 C-5.03824263 1.91862157 -4.11198807 0.67134499 0 0 Z M-2.0625 4.5 C1.9375 5.5 1.9375 5.5 1.9375 5.5 Z M-2.0625 10.5 C1.9375 11.5 1.9375 11.5 1.9375 11.5 Z " fill="#111725" transform="translate(210.0625,139.5)"/>
<path d="M0 0 C2.26397018 1.66452654 2.92000738 2.59470408 3.46875 5.375 C3.55255878 12.41493776 3.55255878 12.41493776 0.875 15.25 C-2.82351033 16.21482878 -4.59423919 15.66503862 -8 14 C-10.48038907 10.2794164 -10.46337203 8.40203429 -10 4 C-7.25744073 -0.1138389 -4.81424895 -0.7170158 0 0 Z M-5 4 C-4.67 4.66 -4.34 5.32 -4 6 C-3.01 6 -2.02 6 -1 6 C-1 5.34 -1 4.68 -1 4 C-2.32 4 -3.64 4 -5 4 Z M-6 9 C-6 9.66 -6 10.32 -6 11 C-4.35 11 -2.7 11 -1 11 C-3.38162009 9.58614089 -3.38162009 9.58614089 -6 9 Z " fill="#101727" transform="translate(199,140)"/>
<path d="M0 0 C1.671875 1.19921875 1.671875 1.19921875 3 3 C3.36328125 5.41015625 3.36328125 5.41015625 3.3125 8.0625 C3.30863281 8.94035156 3.30476563 9.81820312 3.30078125 10.72265625 C3 13 3 13 1 15 C-6.16065574 15.68196721 -6.16065574 15.68196721 -9 13.375 C-10.58870299 9.6018304 -10.57151663 6.5104368 -9.125 2.6875 C-6.83386848 -0.74919728 -3.82314417 -0.3120934 0 0 Z M-5 4 C-1 5 -1 5 -1 5 Z M-6 9 C-5.67 9.66 -5.34 10.32 -5 11 C-3.68 10.67 -2.36 10.34 -1 10 C-2.65 9.67 -4.3 9.34 -6 9 Z " fill="#161D2F" transform="translate(415,140)"/>
<path d="M0 0 C4.29 0 8.58 0 13 0 C13 1.32 13 2.64 13 4 C10.03 4 7.06 4 4 4 C4 5.32 4 6.64 4 8 C6.64 8 9.28 8 12 8 C12 9.32 12 10.64 12 12 C9.36 12 6.72 12 4 12 C4 14.64 4 17.28 4 20 C2.68 20 1.36 20 0 20 C0 13.4 0 6.8 0 0 Z " fill="#0B1526" transform="translate(347,135)"/>
<path d="M0 0 C1.875 1.25 1.875 1.25 3 3 C3 4.32 3 5.64 3 7 C3.20625 7.66 3.4125 8.32 3.625 9 C4 11 4 11 3.375 13.1875 C2 15 2 15 -0.3125 15.9375 C-3.70259051 16.01633931 -5.28202643 14.94140969 -8 13 C-7.814375 12.195625 -7.62875 11.39125 -7.4375 10.5625 C-7.293125 9.716875 -7.14875 8.87125 -7 8 C-7.33 7.67 -7.66 7.34 -8 7 C-8.04080783 5.00041636 -8.04254356 2.99954746 -8 1 C-5.20129973 -0.39935013 -3.09501208 -0.25265405 0 0 Z M-4 10 C0 11 0 11 0 11 Z " fill="#141C2F" transform="translate(427,140)"/>
<path d="M0 0 C-3.33715792 1.11238597 -4.3155042 0.84050687 -7.625 0 C-12.75559336 -1.13174853 -16.8329793 -0.83339044 -22 0 C-21.34 0.33 -20.68 0.66 -20 1 C-20 1.66 -20 2.32 -20 3 C-20.66 3.66 -21.32 4.32 -22 5 C-22.33 5.66 -22.66 6.32 -23 7 C-25.64 7 -28.28 7 -31 7 C-32.125 2.25 -32.125 2.25 -31 0 C-35.95 0 -40.9 0 -46 0 C-46 -0.66 -46 -1.32 -46 -2 C-43.37472811 -2.05382106 -40.75055287 -2.09358313 -38.125 -2.125 C-37.37863281 -2.14175781 -36.63226563 -2.15851562 -35.86328125 -2.17578125 C-33.90805539 -2.1933959 -31.95257979 -2.10320189 -30 -2 C-29 -1 -28 0 -27 1 C-25.96875 0.360625 -24.9375 -0.27875 -23.875 -0.9375 C-16.35797912 -5.17709978 -7.06793466 -5.24395152 0 0 Z " fill="#131E3B" transform="translate(420,56)"/>
<path d="M0 0 C7.51953125 -0.390625 7.51953125 -0.390625 10 0 C12.4211687 2.21244726 12.95090929 3.53134736 13.29296875 6.796875 C13.25816406 7.77140625 13.22335938 8.7459375 13.1875 9.75 C13.16042969 10.73484375 13.13335937 11.7196875 13.10546875 12.734375 C13.07066406 13.48203125 13.03585938 14.2296875 13 15 C11.68 15 10.36 15 9 15 C8.67 11.7 8.34 8.4 8 5 C7.34 5.66 6.68 6.32 6 7 C5.67 6.34 5.34 5.68 5 5 C4.67 8.3 4.34 11.6 4 15 C2.68 14.67 1.36 14.34 0 14 C0 9.38 0 4.76 0 0 Z " fill="#0F1629" transform="translate(175,140)"/>
<path d="M0 0 C0.33 0.66 0.66 1.32 1 2 C1.99 2 2.98 2 4 2 C4.33 1.34 4.66 0.68 5 0 C6.37562854 1.28965176 7.70766393 2.62689293 9 4 C9 4.66 9 5.32 9 6 C9.99 6.33 10.98 6.66 12 7 C12 7.66 12 8.32 12 9 C12.8971875 9.433125 12.8971875 9.433125 13.8125 9.875 C16 11 16 11 19 13 C19 13.66 19 14.32 19 15 C13.14655106 14.50069005 8.80976283 12.75991345 3.625 10.0625 C2.54025391 9.52206055 2.54025391 9.52206055 1.43359375 8.97070312 C-3.86385895 6.2722821 -3.86385895 6.2722821 -5 4 C-2.525 4.495 -2.525 4.495 0 5 C0 3.35 0 1.7 0 0 Z " fill="#1C85EF" transform="translate(53,130)"/>
<path d="M0 0 C0.33 0.99 0.66 1.98 1 3 C2.02939697 3.029729 2.02939697 3.029729 3.07958984 3.06005859 C6.17845779 3.15510945 9.27663294 3.26486847 12.375 3.375 C13.99535156 3.42140625 13.99535156 3.42140625 15.6484375 3.46875 C17.1953125 3.52675781 17.1953125 3.52675781 18.7734375 3.5859375 C20.20308838 3.63306885 20.20308838 3.63306885 21.66162109 3.68115234 C24 4 24 4 26 6 C25.3702124 5.99476318 24.7404248 5.98952637 24.09155273 5.98413086 C21.20687885 5.96319862 18.32222102 5.9502885 15.4375 5.9375 C14.44685547 5.92912109 13.45621094 5.92074219 12.43554688 5.91210938 C7.17068695 5.89461815 2.21231094 6.17597092 -3 7 C-5.59795638 7.02568601 -8.17006708 6.94060299 -10.765625 6.83984375 C-13.28874041 6.83586507 -13.28874041 6.83586507 -16 9 C-16.57748803 10.96361864 -16.57748803 10.96361864 -16.6875 13.125 C-16.790625 14.40375 -16.89375 15.6825 -17 17 C-15.68 17.33 -14.36 17.66 -13 18 C-13.33 20.31 -13.66 22.62 -14 25 C-15.125 21.25 -15.125 21.25 -14 19 C-15.32 18.67 -16.64 18.34 -18 18 C-18.02685412 15.68756208 -18.04632841 13.3750373 -18.0625 11.0625 C-18.07410156 9.77472656 -18.08570312 8.48695312 -18.09765625 7.16015625 C-18 4 -18 4 -17 3 C-14.30345146 2.92680379 -11.63308542 2.90757463 -8.9375 2.9375 C-8.17888672 2.94201172 -7.42027344 2.94652344 -6.63867188 2.95117188 C-4.75908129 2.9629932 -2.87953101 2.98092922 -1 3 C-0.67 2.01 -0.34 1.02 0 0 Z " fill="#2574C5" transform="translate(44,40)"/>
<path d="M0 0 C20.46 0 40.92 0 62 0 C62 0.66 62 1.32 62 2 C53.75 2 45.5 2 37 2 C37 2.66 37 3.32 37 4 C36.49243164 3.84152588 35.98486328 3.68305176 35.46191406 3.51977539 C32.18677364 2.82830633 28.94303931 2.7656084 25.609375 2.68359375 C24.90476135 2.66281265 24.20014771 2.64203156 23.47418213 2.62062073 C21.23288319 2.55546163 18.99147136 2.49639752 16.75 2.4375 C15.22655103 2.39428274 13.70311329 2.35066743 12.1796875 2.30664062 C8.45324409 2.19981509 4.72667506 2.09845361 1 2 C0.67 1.34 0.34 0.68 0 0 Z " fill="#2092EB" transform="translate(371,125)"/>
<path d="M0 0 C0.99 0 1.98 0 3 0 C3 2.97 3 5.94 3 9 C5.475 9.99 5.475 9.99 8 11 C8 7.7 8 4.4 8 1 C9.32 0.67 10.64 0.34 12 0 C12 4.95 12 9.9 12 15 C4.71186441 16.33615819 4.71186441 16.33615819 1.75 14.9375 C-0.79825889 12.11621337 -0.39770532 10.04205933 -0.25 6.3125 C-0.21390625 5.13300781 -0.1778125 3.95351562 -0.140625 2.73828125 C-0.09421875 1.83464844 -0.0478125 0.93101562 0 0 Z " fill="#151D2F" transform="translate(361,140)"/>
<path d="M0 0 C1.32 0.33 2.64 0.66 4 1 C4 4.3 4 7.6 4 11 C5.32 10.67 6.64 10.34 8 10 C8.33 6.7 8.66 3.4 9 0 C9.99 0 10.98 0 12 0 C12.19448477 2.12437212 12.38038289 4.24953191 12.5625 6.375 C12.66691406 7.55835938 12.77132813 8.74171875 12.87890625 9.9609375 C13 13 13 13 12 15 C5.02215883 16.4870809 5.02215883 16.4870809 1.75390625 14.9296875 C-0.80329264 12.11619919 -0.39766862 10.04113268 -0.25 6.3125 C-0.21390625 5.13300781 -0.1778125 3.95351562 -0.140625 2.73828125 C-0.09421875 1.83464844 -0.0478125 0.93101562 0 0 Z " fill="#13192D" transform="translate(383,140)"/>
<path d="M0 0 C1.6026782 -0.10824843 3.20745748 -0.18570645 4.8125 -0.25 C5.70582031 -0.29640625 6.59914062 -0.3428125 7.51953125 -0.390625 C10 0 10 0 11.8125 1.65625 C13.27883941 4.55034095 13.30277449 6.52231421 13.1875 9.75 C13.16042969 10.73484375 13.13335937 11.7196875 13.10546875 12.734375 C13.07066406 13.48203125 13.03585938 14.2296875 13 15 C11.68 15 10.36 15 9 15 C9 11.37 9 7.74 9 4 C7.68 4.33 6.36 4.66 5 5 C4.67 8.3 4.34 11.6 4 15 C3.01 15 2.02 15 1 15 C0.83013455 13.43784452 0.66426036 11.8752548 0.5 10.3125 C0.4071875 9.44238281 0.314375 8.57226562 0.21875 7.67578125 C0.00840136 5.10276661 -0.03719144 2.58015636 0 0 Z " fill="#141B2E" transform="translate(232,140)"/>
<path d="M0 0 C1.32 0.33 2.64 0.66 4 1 C4.28961496 5.85610204 4.21076537 10.27077116 3 15 C-0.16105856 18.48058795 -3.6980148 20.20240463 -8 22 C-8.80050781 22.34417969 -9.60101563 22.68835938 -10.42578125 23.04296875 C-20.63756857 26.69861698 -32.38505059 26.62346285 -43 25 C-43 24.67 -43 24.34 -43 24 C-41.86304687 23.96261719 -40.72609375 23.92523438 -39.5546875 23.88671875 C-26.88876326 23.38388404 -14.1078312 22.75181896 -3 16 C-2.67 15.34 -2.34 14.68 -2 14 C-1.34 14 -0.68 14 0 14 C-0.495 9.545 -0.495 9.545 -1 5 C-0.01 4.67 0.98 4.34 2 4 C2.33 3.34 2.66 2.68 3 2 C2.01 1.67 1.02 1.34 0 1 C0 0.67 0 0.34 0 0 Z " fill="#3874B2" transform="translate(116,121)"/>
<path d="M0 0 C1.423125 -0.061875 2.84625 -0.12375 4.3125 -0.1875 C5.51326172 -0.23970703 5.51326172 -0.23970703 6.73828125 -0.29296875 C9 0 9 0 10.78125 1.125 C12.54851611 3.84387093 12.29091256 5.98171072 12.1875 9.1875 C12.16042969 10.27417969 12.13335937 11.36085937 12.10546875 12.48046875 C12.07066406 13.31191406 12.03585938 14.14335937 12 15 C10.68 15 9.36 15 8 15 C8 11.37 8 7.74 8 4 C6.68 4.33 5.36 4.66 4 5 C3.67 8.3 3.34 11.6 3 15 C2.01 15 1.02 15 0 15 C0 10.05 0 5.1 0 0 Z " fill="#121A2F" transform="translate(141,140)"/>
<path d="M0 0 C6.62027163 -0.02534939 13.24053076 -0.04286664 19.86083984 -0.05493164 C22.11312325 -0.05996123 24.36540339 -0.06678566 26.61767578 -0.07543945 C29.85450039 -0.08756506 33.09128183 -0.09324206 36.328125 -0.09765625 C37.33554749 -0.10281754 38.34296997 -0.10797882 39.38092041 -0.11329651 C40.32159363 -0.11337204 41.26226685 -0.11344757 42.23144531 -0.11352539 C43.47054657 -0.11685631 43.47054657 -0.11685631 44.73468018 -0.12025452 C46.95108294 -0.00259676 48.87303693 0.38401212 51 1 C51 1.66 51 2.32 51 3 C51.66 3.33 52.32 3.66 53 4 C49.7 4 46.4 4 43 4 C43 3.34 43 2.68 43 2 C28.48 2 13.96 2 -1 2 C-0.67 1.34 -0.34 0.68 0 0 Z " fill="#2493EC" transform="translate(289,125)"/>
<path d="M0 0 C1.65 0.33 3.3 0.66 5 1 C4.6875 2.9375 4.6875 2.9375 4 5 C3.01 5.33 2.02 5.66 1 6 C0.67 7.65 0.34 9.3 0 11 C-0.99 11.33 -1.98 11.66 -3 12 C-3 14.31 -3 16.62 -3 19 C-3.99 19.33 -4.98 19.66 -6 20 C-6.66 19.67 -7.32 19.34 -8 19 C-8.47775919 13.72341521 -8.77893191 9.38256688 -5.6875 4.875 C-4.800625 3.92625 -3.91375 2.9775 -3 2 C-2.01 2 -1.02 2 0 2 C0 1.34 0 0.68 0 0 Z " fill="#2B90F0" transform="translate(358,50)"/>
<path d="M0 0 C5.0235337 2.6655485 10.33643944 5.54582302 14 10 C14 11.32 14 12.64 14 14 C13.23816406 14.20753906 12.47632812 14.41507813 11.69140625 14.62890625 C3.2175773 17.15730215 -2.76610541 20.76610541 -9 27 C-12.58588324 26.61233695 -15.69987921 25.41433748 -19 24 C-19 23.67 -19 23.34 -19 23 C-16.69 23 -14.38 23 -12 23 C-12 23.66 -12 24.32 -12 25 C-8.42895561 23.12050295 -6.45255699 21.82946843 -5 18 C-3.35 18 -1.7 18 0 18 C0 17.34 0 16.68 0 16 C2.64 14.68 5.28 13.36 8 12 C7.04949793 7.81779089 6.4294113 6.30917613 2.875 3.75 C1.92625 3.1725 0.9775 2.595 0 2 C0 1.34 0 0.68 0 0 Z " fill="#368FE1" transform="translate(112,31)"/>
<path d="M0 0 C3.24272646 2.44288606 6.15524608 5.10714637 9 8 C8.67 8.99 8.34 9.98 8 11 C7.54625 10.278125 7.0925 9.55625 6.625 8.8125 C0.69900396 2.46321853 -6.5920924 0.286353 -15.1171875 -0.0625 C-23.53078935 0.11990871 -29.47445203 2.66210176 -36 8 C-38.48735914 10.66254977 -38.48735914 10.66254977 -40 13 C-39.33724231 7.77854414 -37.4018547 5.89071331 -33.4375 2.6484375 C-23.40640934 -4.13540906 -10.96187513 -5.31642285 0 0 Z " fill="#18203A" transform="translate(148,55)"/>
<path d="M0 0 C6.15234375 -0.09765625 6.15234375 -0.09765625 8 0 C9 1 9 1 9.09765625 3.28515625 C9.08605469 4.20167969 9.07445312 5.11820313 9.0625 6.0625 C9.05347656 6.98160156 9.04445313 7.90070312 9.03515625 8.84765625 C9.02355469 9.55792969 9.01195312 10.26820312 9 11 C7.52093108 11.02689216 6.04172517 11.04634621 4.5625 11.0625 C3.32693359 11.07990234 3.32693359 11.07990234 2.06640625 11.09765625 C0 11 0 11 -1 10 C-1.23880597 2.47761194 -1.23880597 2.47761194 0 0 Z " fill="#268EEC" transform="translate(16,25)"/>
<path d="M0 0 C2.11327244 1.36524757 4.14166185 2.7815929 6.14453125 4.3046875 C7.16933594 5.078125 7.16933594 5.078125 8.21484375 5.8671875 C10.01953125 7.3046875 10.01953125 7.3046875 12.01953125 9.3046875 C7.41734152 8.75680777 4.1228787 7.40001386 0.01953125 5.3046875 C-2.56489061 4.56628126 -4.2457172 4.119232 -6.85791016 4.77856445 C-10.63332269 5.71438387 -14.48437686 5.48923697 -18.35546875 5.4921875 C-19.61230469 5.51055664 -19.61230469 5.51055664 -20.89453125 5.52929688 C-25.66508692 5.54054819 -29.4977844 5.15178708 -33.98046875 3.3046875 C-33.98046875 2.6446875 -33.98046875 1.9846875 -33.98046875 1.3046875 C-32.96984375 1.6346875 -31.95921875 1.9646875 -30.91796875 2.3046875 C-21.87340884 4.52559367 -11.94695194 4.89392587 -3.8125 -0.015625 C-1.98046875 -0.6953125 -1.98046875 -0.6953125 0 0 Z " fill="#2766A5" transform="translate(102.98046875,111.6953125)"/>
<path d="M0 0 C0.99 0.495 0.99 0.495 2 1 C3.57918045 1.07299193 5.16146234 1.08363504 6.7421875 1.0625 C8.20495117 1.04993164 8.20495117 1.04993164 9.69726562 1.03710938 C10.74591797 1.02486328 11.79457031 1.01261719 12.875 1 C23.9514305 0.92638022 34.94690121 1.31529477 46 2 C46 2.33 46 2.66 46 3 C30.65439298 3.90363196 15.37054735 4.1243417 0 4 C0 2.68 0 1.36 0 0 Z " fill="#3B94D9" transform="translate(126,125)"/>
<path d="M0 0 C0.99 0 1.98 0 3 0 C3 1.32 3 2.64 3 4 C3.99 4 4.98 4 6 4 C6 5.32 6 6.64 6 8 C5.01 8 4.02 8 3 8 C3 10.31 3 12.62 3 15 C3.99 15 4.98 15 6 15 C6 16.32 6 17.64 6 19 C4.33388095 19.042721 2.66617115 19.04063832 1 19 C0 18 0 18 -0.09765625 15.71484375 C-0.08025391 14.34005859 -0.08025391 14.34005859 -0.0625 12.9375 C-0.05347656 12.01839844 -0.04445313 11.09929687 -0.03515625 10.15234375 C-0.02355469 9.44207031 -0.01195312 8.73179687 0 8 C-0.66 8 -1.32 8 -2 8 C-2 6.68 -2 5.36 -2 4 C-1.34 4 -0.68 4 0 4 C0 2.68 0 1.36 0 0 Z " fill="#111A2F" transform="translate(376,136)"/>
<path d="M0 0 C-0.33 2.31 -0.66 4.62 -1 7 C-5.29 7 -9.58 7 -14 7 C-13.67 5.68 -13.34 4.36 -13 3 C-12.34 3 -11.68 3 -11 3 C-11 2.34 -11 1.68 -11 1 C-6.8204355 -1.78637633 -4.85331323 -0.79562512 0 0 Z " fill="#67B8FD" transform="translate(386,40)"/>
<path d="M0 0 C0.66 0.66 1.32 1.32 2 2 C-5.19981233 8.52482992 -12.07994456 9.56807528 -21.515625 9.35546875 C-27.77266557 8.71713838 -32.8445663 6.8475146 -37.625 2.75 C-38.305625 1.88375 -38.305625 1.88375 -39 1 C-35.81497039 1.71107638 -32.90581291 2.79827826 -29.875 4 C-20.62238052 7.33781499 -14.42435643 7.75452436 -5.25 3.91015625 C-3 3 -3 3 -1 3 C-0.67 2.01 -0.34 1.02 0 0 Z " fill="#121B35" transform="translate(151,106)"/>
<path d="M0 0 C3.375 -0.125 3.375 -0.125 7 0 C9.68092691 2.68092691 9.38670257 4.39167363 9.625 8.125 C9.69976562 9.22070312 9.77453125 10.31640625 9.8515625 11.4453125 C9.92503906 12.70988281 9.92503906 12.70988281 10 14 C2.57142857 16.42857143 2.57142857 16.42857143 -1 15 C2.75 12 2.75 12 5 12 C5.33 10.68 5.66 9.36 6 8 C5.34 7.67 4.68 7.34 4 7 C4.66 7 5.32 7 6 7 C6 6.01 6 5.02 6 4 C4.02 4 2.04 4 0 4 C0 2.68 0 1.36 0 0 Z " fill="#161D35" transform="translate(323,140)"/>
<path d="M0 0 C-0.33 1.32 -0.66 2.64 -1 4 C-1 3.34 -1 2.68 -1 2 C-3.27145346 2.03300659 -5.54240126 2.10240005 -7.8125 2.1875 C-9.70935547 2.23970703 -9.70935547 2.23970703 -11.64453125 2.29296875 C-15.15514345 2.64229958 -15.15514345 2.64229958 -16.78125 5.4375 C-17.1834375 6.283125 -17.585625 7.12875 -18 8 C-22.78757946 11.22883266 -26.40805268 11.53256641 -32 11 C-35 9.5 -35 9.5 -37 8 C-36.34 7.34 -35.68 6.68 -35 6 C-33.05132314 6.52845474 -31.10285874 7.0577273 -29.15625 7.59375 C-25.58293332 8.26698358 -23.26795509 7.47982872 -20 6 C-19.34 4.96875 -18.68 3.9375 -18 2.875 C-14.3335809 -2.31594388 -5.65057827 -0.38381286 0 0 Z " fill="#0F1830" transform="translate(161,91)"/>
<path d="M0 0 C1.134375 0.020625 2.26875 0.04125 3.4375 0.0625 C3.1075 1.7125 2.7775 3.3625 2.4375 5.0625 C1.4475 5.0625 0.4575 5.0625 -0.5625 5.0625 C-0.5625 8.3625 -0.5625 11.6625 -0.5625 15.0625 C-1.8825 15.0625 -3.2025 15.0625 -4.5625 15.0625 C-4.58935412 12.75006208 -4.60882841 10.4375373 -4.625 8.125 C-4.63660156 6.83722656 -4.64820313 5.54945313 -4.66015625 4.22265625 C-4.53212333 0.07951094 -4.53212333 0.07951094 0 0 Z " fill="#111930" transform="translate(401.5625,139.9375)"/>
<path d="M0 0 C0.99 0 1.98 0 3 0 C3 6.6 3 13.2 3 20 C2.01 20 1.02 20 0 20 C-1.64838944 16.70322112 -1.14272738 13.05683956 -1.125 9.4375 C-1.12886719 8.64408203 -1.13273437 7.85066406 -1.13671875 7.03320312 C-1.12663067 1.12663067 -1.12663067 1.12663067 0 0 Z " fill="#0F1B35" transform="translate(335,135)"/>
<path d="M0 0 C0.33 0 0.66 0 1 0 C1 2.64 1 5.28 1 8 C1.99 8.33 2.98 8.66 4 9 C2.33333333 12.33333333 0.66666667 15.66666667 -1 19 C-1.93423645 15.98968256 -2.04449911 15.13349732 -1 12 C-1.99 11.67 -2.98 11.34 -4 11 C-4.99 11.99 -5.98 12.98 -7 14 C-7 10.13375035 -5.65502846 8.53339391 -3.5625 5.3125 C-2.92441406 4.31863281 -2.28632813 3.32476562 -1.62890625 2.30078125 C-0.82259766 1.16189453 -0.82259766 1.16189453 0 0 Z " fill="#2B87E2" transform="translate(349,61)"/>
<path d="M0 0 C11.55 0 23.1 0 35 0 C34.67 1.65 34.34 3.3 34 5 C25.28217363 5.16311941 16.68761489 4.65655389 8 4 C8 3.67 8 3.34 8 3 C16.25 3 24.5 3 33 3 C33 2.34 33 1.68 33 1 C22.11 1 11.22 1 0 1 C0 0.67 0 0.34 0 0 Z " fill="#4095DA" transform="translate(400,124)"/>
<path d="M0 0 C2.64 0 5.28 0 8 0 C8 1.32 8 2.64 8 4 C6.68 4.33 5.36 4.66 4 5 C4.020625 6.093125 4.04125 7.18625 4.0625 8.3125 C4 12 4 12 3 15 C2.01 15 1.02 15 0 15 C0 10.05 0 5.1 0 0 Z " fill="#13182C" transform="translate(218,140)"/>
<path d="M0 0 C1.91789713 0.28346278 3.83429183 0.5771028 5.75 0.875 C6.81734375 1.03742187 7.8846875 1.19984375 8.984375 1.3671875 C11.67708871 1.93223882 13.63572439 2.63422914 16 4 C16 4.66 16 5.32 16 6 C8.08 6.495 8.08 6.495 0 7 C0 5.68 0 4.36 0 3 C-0.66 2.67 -1.32 2.34 -2 2 C-1.34 2 -0.68 2 0 2 C0 1.34 0 0.68 0 0 Z " fill="#1B73C8" transform="translate(73,47)"/>
<path d="M0 0 C3.5 0.125 3.5 0.125 4.5 1.125 C4.64115161 3.79558851 4.54247107 6.44932238 4.5 9.125 C1.86 9.125 -0.78 9.125 -3.5 9.125 C-4.37890625 2.97265625 -4.37890625 2.97265625 -4.5 1.125 C-3.5 0.125 -3.5 0.125 0 0 Z " fill="#3295E5" transform="translate(391.5,30.875)"/>
<path d="M0 0 C0.12375 0.5775 0.2475 1.155 0.375 1.75 C1.00648824 4.02335767 1.88858191 5.9253529 3 8 C1 10 1 10 -0.875 10.265625 C-1.57625 10.26046875 -2.2775 10.2553125 -3 10.25 C-3.70125 10.25515625 -4.4025 10.2603125 -5.125 10.265625 C-7 10 -7 10 -9 8 C-9 6.68 -9 5.36 -9 4 C-5.86501708 2.14223235 -3.62528568 1.79859524 0 2 C0 1.34 0 0.68 0 0 Z M-5 5 C-1 6 -1 6 -1 6 Z " fill="#172133" transform="translate(164,150)"/>
<path d="M0 0 C0.99 0.33 1.98 0.66 3 1 C3.02689449 3.95839355 3.04678741 6.91654427 3.0625 9.875 C3.07087891 10.71675781 3.07925781 11.55851563 3.08789062 12.42578125 C3.09111328 13.23144531 3.09433594 14.03710938 3.09765625 14.8671875 C3.10289307 15.61081543 3.10812988 16.35444336 3.11352539 17.12060547 C3 19 3 19 2 21 C1.01 21 0.02 21 -1 21 C-1.02888146 17.68751813 -1.04675799 14.37506833 -1.0625 11.0625 C-1.07087891 10.11697266 -1.07925781 9.17144531 -1.08789062 8.19726562 C-1.09111328 7.29814453 -1.09433594 6.39902344 -1.09765625 5.47265625 C-1.10289307 4.64000244 -1.10812988 3.80734863 -1.11352539 2.94946289 C-1 1 -1 1 0 0 Z " fill="#12172E" transform="translate(287,134)"/>
<path d="M0 0 C1.66015625 0.74869792 3.3203125 1.49739583 4.98046875 2.24609375 C14.02535549 5.6226182 23.85714411 4.22125783 33 2 C33 2.66 33 3.32 33 4 C25.07041482 7.80620089 16.4812535 8.4929757 7.9453125 6.16796875 C4.41984496 4.80376609 1.68862069 3.68862069 -1 1 C-0.67 0.67 -0.34 0.34 0 0 Z " fill="#111B33" transform="translate(178,108)"/>
<path d="M0 0 C0.99 0.33 1.98 0.66 3 1 C2.67 7.6 2.34 14.2 2 21 C1.01 21 0.02 21 -1 21 C-1.22212255 18.25048307 -1.42815588 15.50134388 -1.625 12.75 C-1.68945312 11.97269531 -1.75390625 11.19539062 -1.8203125 10.39453125 C-2.30707097 3.27568856 -2.30707097 3.27568856 0 0 Z " fill="#11162A" transform="translate(171,134)"/>
<path d="M0 0 C0.66 0.33 1.32 0.66 2 1 C1.27876953 2.31677734 1.27876953 2.31677734 0.54296875 3.66015625 C-1.88175674 9.31784907 -1.57178976 15.37758951 -1.6875 21.4375 C-1.72166016 22.64599609 -1.75582031 23.85449219 -1.79101562 25.09960938 C-1.87309213 28.06608875 -1.93823246 31.03302828 -2 34 C-7.61 34 -13.22 34 -19 34 C-19.33 32.68 -19.66 31.36 -20 30 C-19.34 30.66 -18.68 31.32 -18 32 C-15.43083343 32.30599063 -12.95241616 32.51087087 -10.375 32.625 C-9.66859375 32.66367188 -8.9621875 32.70234375 -8.234375 32.7421875 C-6.49001476 32.83647724 -4.74504309 32.91932891 -3 33 C-3.00785522 31.81241089 -3.00785522 31.81241089 -3.01586914 30.60083008 C-3.03668937 27.00472816 -3.04967627 23.40863895 -3.0625 19.8125 C-3.07087891 18.56662109 -3.07925781 17.32074219 -3.08789062 16.03710938 C-3.09111328 14.83505859 -3.09433594 13.63300781 -3.09765625 12.39453125 C-3.10551147 10.73707886 -3.10551147 10.73707886 -3.11352539 9.04614258 C-3.00807699 6.21672395 -2.77876546 3.72153184 -2 1 C-1.34 0.67 -0.68 0.34 0 0 Z " fill="#3D8AD2" transform="translate(345,80)"/>
<path d="M0 0 C0.99 0 1.98 0 3 0 C3 6.6 3 13.2 3 20 C2.01 20 1.02 20 0 20 C-0.19594676 16.85463232 -0.3803401 13.70869386 -0.5625 10.5625 C-0.61857422 9.66466797 -0.67464844 8.76683594 -0.73242188 7.84179688 C-0.78076172 6.98779297 -0.82910156 6.13378906 -0.87890625 5.25390625 C-0.9260376 4.46314697 -0.97316895 3.6723877 -1.02172852 2.85766602 C-1 1 -1 1 0 0 Z " fill="#121727" transform="translate(227,135)"/>
<path d="M0 0 C2.2043353 1.06134663 4.25677115 2.16655426 6.3125 3.5 C14.22278728 7.91504406 21.18196538 6.905041 30 6 C26.75884869 9.24115131 23.70241697 9.18254929 19.3125 9.25 C11.61628598 9.17564044 5.69307918 7.51517046 0 2 C0 1.34 0 0.68 0 0 Z " fill="#151E37" transform="translate(240,106)"/>
<path d="M0 0 C0.99 0 1.98 0 3 0 C3 2.97 3 5.94 3 9 C3.66 9.33 4.32 9.66 5 10 C5.33 10.99 5.66 11.98 6 13 C6.66 13.66 7.32 14.32 8 15 C6.25 15.6875 6.25 15.6875 4 16 C1.875 14.9375 1.875 14.9375 0 13 C-0.390625 9.86328125 -0.390625 9.86328125 -0.25 6.3125 C-0.21390625 5.13300781 -0.1778125 3.95351562 -0.140625 2.73828125 C-0.09421875 1.83464844 -0.0478125 0.93101562 0 0 Z " fill="#101626" transform="translate(361,140)"/>
<path d="M0 0 C0.66 0 1.32 0 2 0 C2.69289369 3.72430357 3.11144596 7.21083746 3 11 C0.42786866 12.61949011 -0.67669159 13.04408751 -3.75 12.625 C-4.86375 12.315625 -4.86375 12.315625 -6 12 C-6 10.68 -6 9.36 -6 8 C-4.02 7.67 -2.04 7.34 0 7 C-0.99 6.01 -1.98 5.02 -3 4 C-2.01 4 -1.02 4 0 4 C0 2.68 0 1.36 0 0 Z " fill="#161C2A" transform="translate(212,143)"/>
<path d="M0 0 C1.6484375 1.1015625 1.6484375 1.1015625 4.0859375 3.1015625 C3.7559375 3.7615625 3.4259375 4.4215625 3.0859375 5.1015625 C2.2609375 4.6065625 1.4359375 4.1115625 0.5859375 3.6015625 C-3.49414848 1.85295422 -6.54590997 1.30972609 -10.9140625 2.1015625 C-14.85029079 4.14256976 -17.39615509 5.85142175 -18.9140625 10.1015625 C-19.5740625 10.1015625 -20.2340625 10.1015625 -20.9140625 10.1015625 C-19.46057658 5.07026508 -18.37264892 2.47547844 -13.7890625 -0.0859375 C-9.24582433 -1.36989611 -4.39804861 -2.06439016 0 0 Z " fill="#11192F" transform="translate(268.9140625,66.8984375)"/>
<path d="M0 0 C0.21755666 5.4389165 0.10428384 9.87080814 -2 15 C-2.33 15 -2.66 15 -3 15 C-3.66 11.37 -4.32 7.74 -5 4 C-6.65 3.67 -8.3 3.34 -10 3 C-6.61946357 -0.38053643 -4.5955089 -1.35557899 0 0 Z " fill="#141C2F" transform="translate(305,141)"/>
<path d="M0 0 C-0.33 2.31 -0.66 4.62 -1 7 C-3.31 7 -5.62 7 -8 7 C-8.33 4.69 -8.66 2.38 -9 0 C-3.375 -1.125 -3.375 -1.125 0 0 Z " fill="#2F96EE" transform="translate(387,25)"/>
<path d="M0 0 C0.99 0 1.98 0 3 0 C3 4.95 3 9.9 3 15 C2.01 15 1.02 15 0 15 C-1.2398524 4.83763838 -1.2398524 4.83763838 -1 1 C-0.67 0.67 -0.34 0.34 0 0 Z " fill="#0B1226" transform="translate(307,140)"/>
<path d="M0 0 C3.96 0 7.92 0 12 0 C12 1.32 12 2.64 12 4 C8.7 4.33 5.4 4.66 2 5 C1.67 6.98 1.34 8.96 1 11 C0.67 11 0.34 11 0 11 C0 7.37 0 3.74 0 0 Z " fill="#17223A" transform="translate(348,135)"/>
<path d="M0 0 C1.32 0.33 2.64 0.66 4 1 C4.11928251 13.74618834 4.11928251 13.74618834 1.375 16.8203125 C-0.5625 17.875 -0.5625 17.875 -4 19 C-3.34 17.35 -2.68 15.7 -2 14 C-1.34 14 -0.68 14 0 14 C-0.33 11.03 -0.66 8.06 -1 5 C-0.01 4.67 0.98 4.34 2 4 C2.33 3.34 2.66 2.68 3 2 C2.01 1.67 1.02 1.34 0 1 C0 0.67 0 0.34 0 0 Z " fill="#2764A5" transform="translate(116,121)"/>
<path d="M0 0 C1.16896069 3.50688207 0.74754734 4.35813116 -0.4375 7.75 C-1.96015246 12.54146601 -3.30414982 17.21781372 -1.0625 22 C-0.711875 22.66 -0.36125 23.32 0 24 C0.59445875 27.38841489 1 30.56014226 1 34 C-4.08801442 28.21816543 -4.42928762 21.54957951 -4.3359375 14.15625 C-3.79738192 9.09633249 -2.04169068 4.63026279 0 0 Z " fill="#091125" transform="translate(169,67)"/>
<path d="M0 0 C0 1.65 0 3.3 0 5 C0.66 5.33 1.32 5.66 2 6 C0.9375 7.5 0.9375 7.5 -1 9 C-4.6875 9.1875 -4.6875 9.1875 -8 9 C-8 8.01 -8 7.02 -8 6 C-7.01 5.67 -6.02 5.34 -5 5 C-5.99 4.01 -6.98 3.02 -8 2 C-1.125 0 -1.125 0 0 0 Z " fill="#1A2236" transform="translate(257,151)"/>
<path d="M0 0 C0 0.66 0 1.32 0 2 C-0.66 2 -1.32 2 -2 2 C-2.22558594 2.51046875 -2.45117188 3.0209375 -2.68359375 3.546875 C-4.52954698 6.98681159 -6.78706881 10.08306324 -9.0625 13.25 C-9.52205078 13.8996875 -9.98160156 14.549375 -10.45507812 15.21875 C-11.60938524 16.83240694 -12.80148996 18.41889681 -14 20 C-14.33 20 -14.66 20 -15 20 C-15 18.02 -15 16.04 -15 14 C-14.360625 13.7525 -13.72125 13.505 -13.0625 13.25 C-10.82450832 12.21173571 -10.82450832 12.21173571 -10.4375 10.0625 C-10.293125 9.381875 -10.14875 8.70125 -10 8 C-8.40485219 6.12743518 -7.2039483 5.10197415 -5 4 C-5 3.01 -5 2.02 -5 1 C-2 0 -2 0 0 0 Z " fill="#418CD2" transform="translate(369,48)"/>
<path d="M0 0 C5.94 0 11.88 0 18 0 C18 0.33 18 0.66 18 1 C12.555 1.495 12.555 1.495 7 2 C7 3.65 7 5.3 7 7 C5.02 7.99 5.02 7.99 3 9 C0 3.375 0 3.375 0 0 Z " fill="#0B0E20" transform="translate(297,32)"/>
<path d="M0 0 C0.66 0 1.32 0 2 0 C1.58645654 3.30834766 0.6391846 5.79788844 -0.9375 8.6875 C-3.02679238 12.64062155 -3.7944719 16.39414158 -4.41015625 20.80078125 C-5.08869771 23.33070735 -6.01699172 24.33943209 -8 26 C-7.59060025 19.23784552 -6.43046191 13.32837252 -4 7 C-3.34 7 -2.68 7 -2 7 C-2 5.68 -2 4.36 -2 3 C-1.34 3 -0.68 3 0 3 C0 2.01 0 1.02 0 0 Z " fill="#3075C4" transform="translate(59,62)"/>
<path d="M0 0 C-3.36135736 1.12045245 -4.30322209 0.81803478 -7.625 -0.0625 C-14.03216352 -1.46963694 -18.91565463 -0.02811512 -25 2 C-24 -1 -24 -1 -22.3125 -2.125 C-14.85852533 -4.94542285 -6.53504509 -4.84858184 0 0 Z " fill="#1A2237" transform="translate(420,56)"/>
<path d="M0 0 C0.66 0 1.32 0 2 0 C2 0.66 2 1.32 2 2 C2.66 2.33 3.32 2.66 4 3 C3.67 7.29 3.34 11.58 3 16 C2.01 16.33 1.02 16.66 0 17 C0 11.39 0 5.78 0 0 Z " fill="#0D1427" transform="translate(269,136)"/>
<path d="M0 0 C1.27460466 2.45116281 2.32367462 4.84771925 3.3125 7.4375 C5.076346 11.16117488 6.99615647 13.23330201 10 16 C10.33 16.66 10.66 17.32 11 18 C11.66 18 12.32 18 13 18 C13 18.66 13 19.32 13 20 C8.33469866 19.30884425 5.46426933 16.79617037 2.53515625 13.203125 C0.11615547 9.74549508 -1.43078997 7.29319657 -0.8125 3 C-0.544375 2.01 -0.27625 1.02 0 0 Z " fill="#065DB6" transform="translate(58,121)"/>
<path d="M0 0 C0.66 0.33 1.32 0.66 2 1 C1.67 3.64 1.34 6.28 1 9 C2.98 9 4.96 9 7 9 C7 6.69 7 4.38 7 2 C5.68 1.34 4.36 0.68 3 0 C4.66611905 -0.042721 6.33382885 -0.04063832 8 0 C9 1 9 1 9.09765625 3.28515625 C9.08605469 4.20167969 9.07445312 5.11820313 9.0625 6.0625 C9.05347656 6.98160156 9.04445313 7.90070312 9.03515625 8.84765625 C9.02355469 9.55792969 9.01195312 10.26820312 9 11 C7.52093108 11.02689216 6.04172517 11.04634621 4.5625 11.0625 C3.32693359 11.07990234 3.32693359 11.07990234 2.06640625 11.09765625 C0 11 0 11 -1 10 C-1.23880597 2.47761194 -1.23880597 2.47761194 0 0 Z " fill="#4890D0" transform="translate(16,25)"/>
<path d="M0 0 C2 2 2 2 2.1953125 4.6015625 C2.17210937 5.59929687 2.14890625 6.59703125 2.125 7.625 C2.10695312 8.62789062 2.08890625 9.63078125 2.0703125 10.6640625 C2.03550781 11.82035156 2.03550781 11.82035156 2 13 C0.68 13 -0.64 13 -2 13 C-2.33 9.37 -2.66 5.74 -3 2 C-2.01 1.34 -1.02 0.68 0 0 Z " fill="#0C1325" transform="translate(186,142)"/>
<path d="M0 0 C3.96 0 7.92 0 12 0 C12 1.98 12 3.96 12 6 C11.01 6 10.02 6 9 6 C9 5.34 9 4.68 9 4 C7.02 4 5.04 4 3 4 C3 3.34 3 2.68 3 2 C2.01 1.67 1.02 1.34 0 1 C0 0.67 0 0.34 0 0 Z " fill="#192841" transform="translate(127,135)"/>
<path d="M0 0 C0.33 0 0.66 0 1 0 C0.97679687 0.56847656 0.95359375 1.13695313 0.9296875 1.72265625 C0.78639438 7.85355482 0.76007277 13.56243214 5.125 18.3125 C5.74375 18.869375 6.3625 19.42625 7 20 C7 20.66 7 21.32 7 22 C2.55117606 20.19385353 1.14733648 17.58684191 -1.01953125 13.453125 C-2.52854371 9.67758785 -2.48661501 7.0319529 -2 3 C-1.34 2.01 -0.68 1.02 0 0 Z " fill="#081026" transform="translate(248,77)"/>
<path d="M0 0 C0 1.32 0 2.64 0 4 C-2.64 4 -5.28 4 -8 4 C-8 4.66 -8 5.32 -8 6 C-8.66 6 -9.32 6 -10 6 C-9.67 7.65 -9.34 9.3 -9 11 C-9.66 11 -10.32 11 -11 11 C-11.19966912 7.53906866 -11.32761013 4.7985497 -10 1.5625 C-6.81039012 -0.92938272 -3.96543085 -0.26002825 0 0 Z " fill="#131C2D" transform="translate(359,143)"/>
<path d="M0 0 C1.32 0 2.64 0 4 0 C4 4.95 4 9.9 4 15 C3.01 15 2.02 15 1 15 C0.83013455 13.43784452 0.66426036 11.8752548 0.5 10.3125 C0.4071875 9.44238281 0.314375 8.57226562 0.21875 7.67578125 C0.00840136 5.10276661 -0.03719144 2.58015636 0 0 Z " fill="#0E1326" transform="translate(232,140)"/>
<path d="M0 0 C1.32 0 2.64 0 4 0 C4 5.28 4 10.56 4 16 C1.61093097 13.61093097 1.71466319 12.83074704 1.5 9.5625 C1.26931817 6.06190316 1.03849437 5.05774155 -1 2 C-0.67 1.34 -0.34 0.68 0 0 Z " fill="#050F24" transform="translate(387,98)"/>
<path d="M0 0 C0.33 0 0.66 0 1 0 C1.33 3.3 1.66 6.6 2 10 C1.34 10 0.68 10 0 10 C0 12.64 0 15.28 0 18 C-0.66 18 -1.32 18 -2 18 C-2.054348 15.9377952 -2.09294961 13.87517184 -2.125 11.8125 C-2.14820313 10.66394531 -2.17140625 9.51539062 -2.1953125 8.33203125 C-2.00484152 5.08259628 -1.39360127 2.91339479 0 0 Z " fill="#061128" transform="translate(327,86)"/>
<path d="M0 0 C3.81684226 1.55500981 6.19195732 4.03595495 9 7 C5.7 6.67 2.4 6.34 -1 6 C-1.33 8.64 -1.66 11.28 -2 14 C-2.33 14 -2.66 14 -3 14 C-3 10.04 -3 6.08 -3 2 C-2.34 2 -1.68 2 -1 2 C-0.67 1.34 -0.34 0.68 0 0 Z " fill="#195EAA" transform="translate(60,106)"/>
<path d="M0 0 C3.63 0 7.26 0 11 0 C11 0.66 11 1.32 11 2 C14.96 2 18.92 2 23 2 C23 2.33 23 2.66 23 3 C20.20865148 3.19425873 17.41716313 3.38069517 14.625 3.5625 C13.8309375 3.61857422 13.036875 3.67464844 12.21875 3.73242188 C6.2265625 4.11328125 6.2265625 4.11328125 4 3 C4 2.34 4 1.68 4 1 C2.68 0.67 1.36 0.34 0 0 Z " fill="#2B8CDA" transform="translate(336,125)"/>
<path d="M0 0 C0.33 0.66 0.66 1.32 1 2 C1.66 2 2.32 2 3 2 C2.67 4.31 2.34 6.62 2 9 C0.35 9.33 -1.3 9.66 -3 10 C-2.25 3.375 -2.25 3.375 0 0 Z " fill="#2086F2" transform="translate(345,71)"/>
<path d="M0 0 C0.33 0.66 0.66 1.32 1 2 C5.62 2 10.24 2 15 2 C15 1.34 15 0.68 15 0 C15.66 0 16.32 0 17 0 C16.67 1.32 16.34 2.64 16 4 C10.72 4 5.44 4 0 4 C0 2.68 0 1.36 0 0 Z " fill="#121F39" transform="translate(276,110)"/>
<path d="M0 0 C1.0567986 3.38014207 0.97970671 6.2921208 0.8125 9.8125 C0.7360888 15.48776832 1.68682915 18.44439008 5 23 C2 23 2 23 0.32421875 21.421875 C-1.4284194 18.21646009 -1.29641079 15.88035978 -1.1875 12.25 C-1.16042969 11.07953125 -1.13335937 9.9090625 -1.10546875 8.703125 C-1.07066406 7.81109375 -1.03585938 6.9190625 -1 6 C-1.66 5.67 -2.32 5.34 -3 5 C-2.01 3.35 -1.02 1.7 0 0 Z " fill="#090F24" transform="translate(182,74)"/>
<path d="M0 0 C0 3 0 3 -1.0625 5.9375 C-1.989088 8.96435413 -2.10754945 10.12037142 -1 13 C-2.98 12.34 -4.96 11.68 -7 11 C-7 11.66 -7 12.32 -7 13 C-7.66 12.67 -8.32 12.34 -9 12 C-6.03 8.04 -3.06 4.08 0 0 Z " fill="#1E7AD9" transform="translate(365,39)"/>
<path d="M0 0 C1.69953157 1.00909687 3.35542486 2.09111657 5 3.1875 C5 3.8475 5 4.5075 5 5.1875 C-0.27749285 4.64898032 -4.25645564 3.41406164 -9 1.1875 C-8.401875 1.043125 -7.80375 0.89875 -7.1875 0.75 C-1.65545087 -0.67252692 -1.65545087 -0.67252692 0 0 Z " fill="#3886D7" transform="translate(67,139.8125)"/>
<path d="M0 0 C0.99 0.495 0.99 0.495 2 1 C4.55157655 1.0716735 7.07472971 1.09308442 9.625 1.0625 C10.33140625 1.05798828 11.0378125 1.05347656 11.765625 1.04882812 C13.51045275 1.03703875 15.255237 1.01910324 17 1 C16.01 1.33 15.02 1.66 14 2 C13.67 2.66 13.34 3.32 13 4 C8.71 4 4.42 4 0 4 C0 2.68 0 1.36 0 0 Z " fill="#287DDC" transform="translate(126,125)"/>
<path d="M0 0 C3.41124018 1.41154766 4.8456223 3.06221223 7 6 C7.66 6 8.32 6 9 6 C8 9 8 9 7 10 C6.92851801 11.35243917 6.91600546 12.70834367 6.9375 14.0625 C6.958125 15.361875 6.97875 16.66125 7 18 C6.34 18 5.68 18 5 18 C4.89042969 17.11957031 4.78085938 16.23914063 4.66796875 15.33203125 C4.43013672 13.58986328 4.43013672 13.58986328 4.1875 11.8125 C3.96126953 10.08966797 3.96126953 10.08966797 3.73046875 8.33203125 C2.99597495 4.98163973 1.92950074 2.8070271 0 0 Z " fill="#0C152C" transform="translate(204,70)"/>
<path d="M0 0 C1.9375 0.375 1.9375 0.375 4 1 C5.32229189 3.64458379 5.09677194 5.67761301 5.0625 8.625 C5.05347656 9.62789062 5.04445313 10.63078125 5.03515625 11.6640625 C5.02355469 12.43492187 5.01195312 13.20578125 5 14 C2.36 14.33 -0.28 14.66 -3 15 C-3.33 14.34 -3.66 13.68 -4 13 C-3.030625 12.7525 -2.06125 12.505 -1.0625 12.25 C-0.051875 11.8375 0.95875 11.425 2 11 C2.96877057 8.96756452 2.96877057 8.96756452 3 7 C2.34 6.67 1.68 6.34 1 6 C1.66 6 2.32 6 3 6 C3 4.68 3 3.36 3 2 C2.01 1.67 1.02 1.34 0 1 C0 0.67 0 0.34 0 0 Z " fill="#192137" transform="translate(326,141)"/>
<path d="M0 0 C0.99 0 1.98 0 3 0 C3 4.95 3 9.9 3 15 C0 12 0 12 -0.29296875 9.08203125 C-0.25816406 8.00308594 -0.22335938 6.92414063 -0.1875 5.8125 C-0.16042969 4.72582031 -0.13335937 3.63914063 -0.10546875 2.51953125 C-0.07066406 1.68808594 -0.03585938 0.85664063 0 0 Z " fill="#0E1829" transform="translate(164,142)"/>
<path d="M0 0 C0.33 0 0.66 0 1 0 C1.33 3.63 1.66 7.26 2 11 C0.68 11 -0.64 11 -2 11 C-3.35439668 8.29120665 -3.06501451 5.99066732 -3 3 C-2.34 3 -1.68 3 -1 3 C-0.67 2.01 -0.34 1.02 0 0 Z " fill="#177AD0" transform="translate(328,101)"/>
<path d="M0 0 C0.99 0.33 1.98 0.66 3 1 C3.3721042 2.32303717 3.70630173 3.65737935 4 5 C4.66 5.33 5.32 5.66 6 6 C6.72693904 7.97888961 7.39816251 9.97954558 8 12 C7.01 11.67 6.02 11.34 5 11 C5 10.34 5 9.68 5 9 C4.01 8.67 3.02 8.34 2 8 C2 7.34 2 6.68 2 6 C1.34 6 0.68 6 0 6 C0 4.02 0 2.04 0 0 Z " fill="#0F80EB" transform="translate(36,116)"/>
<path d="M0 0 C1.32 0 2.64 0 4 0 C4 0.66 4 1.32 4 2 C3.34 2 2.68 2 2 2 C2.33 6.29 2.66 10.58 3 15 C2.01 14.67 1.02 14.34 0 14 C0 9.38 0 4.76 0 0 Z " fill="#171E2D" transform="translate(175,140)"/>
<path d="M0 0 C2.31 0.66 4.62 1.32 7 2 C7 2.66 7 3.32 7 4 C7.66 4 8.32 4 9 4 C9 4.66 9 5.32 9 6 C5.625 6.125 5.625 6.125 2 6 C1.34 5.34 0.68 4.68 0 4 C0 2.68 0 1.36 0 0 Z " fill="#1A2339" transform="translate(292,154)"/>
<path d="M0 0 C0.99 0.495 0.99 0.495 2 1 C2 1.99 2 2.98 2 4 C4.31 4.66 6.62 5.32 9 6 C7.33333333 7.66666667 5.66666667 9.33333333 4 11 C4 10.34 4 9.68 4 9 C3.34 9 2.68 9 2 9 C-0.29013653 5.5647952 -0.17842973 4.014669 0 0 Z " fill="#111928" transform="translate(291,145)"/>
<path d="M0 0 C1.32 0.33 2.64 0.66 4 1 C3.71831703 2.95979427 3.42433283 4.91782378 3.125 6.875 C2.96257812 7.96554688 2.80015625 9.05609375 2.6328125 10.1796875 C2 13 2 13 0 15 C0 10.05 0 5.1 0 0 Z " fill="#0B1020" transform="translate(218,140)"/>
<path d="M0 0 C0 1.65 0 3.3 0 5 C-0.66 4.67 -1.32 4.34 -2 4 C-2.33 4.99 -2.66 5.98 -3 7 C-3.33 6.34 -3.66 5.68 -4 5 C-5.98 5 -7.96 5 -10 5 C-7.62417533 -0.26075462 -5.61350876 -0.1220328 0 0 Z " fill="#192334" transform="translate(259,140)"/>
<path d="M0 0 C3.95831809 -0.02892857 7.91660917 -0.04677427 11.875 -0.0625 C13.56689453 -0.07506836 13.56689453 -0.07506836 15.29296875 -0.08789062 C16.36933594 -0.09111328 17.44570312 -0.09433594 18.5546875 -0.09765625 C19.54968262 -0.10289307 20.54467773 -0.10812988 21.56982422 -0.11352539 C24 0 24 0 26 1 C26 1.66 26 2.32 26 3 C25.22398437 2.84660156 24.44796875 2.69320312 23.6484375 2.53515625 C18.97800532 1.85009286 14.33744915 1.64253523 9.625 1.4375 C8.69816406 1.39431641 7.77132812 1.35113281 6.81640625 1.30664062 C4.54439706 1.20123814 2.27229075 1.09911394 0 1 C0 0.67 0 0.34 0 0 Z " fill="#1E9DE8" transform="translate(152,126)"/>
<path d="M0 0 C0.33 0 0.66 0 1 0 C1 3.3 1 6.6 1 10 C0.34 10 -0.32 10 -1 10 C-1 13.96 -1 17.92 -1 22 C-1.33 22 -1.66 22 -2 22 C-2.05434116 19.4580411 -2.0938339 16.91726318 -2.125 14.375 C-2.14175781 13.66214844 -2.15851562 12.94929688 -2.17578125 12.21484375 C-2.21684602 7.7387836 -1.69086567 4.22050722 0 0 Z " fill="#0B54A9" transform="translate(52,86)"/>
<path d="M0 0 C0.66 0 1.32 0 2 0 C2.66 2.31 3.32 4.62 4 7 C4.66 7 5.32 7 6 7 C6.99 10.63 7.98 14.26 9 18 C5.87229723 14.87229723 4.62047061 12.43289185 2.8125 8.4375 C2.28269531 7.28121094 1.75289062 6.12492187 1.20703125 4.93359375 C0 2 0 2 0 0 Z " fill="#337FCC" transform="translate(27,104)"/>
<path d="M0 0 C0.66 0 1.32 0 2 0 C2 0.66 2 1.32 2 2 C3.65 2.33 5.3 2.66 7 3 C6.01 3.495 6.01 3.495 5 4 C5 5.32 5 6.64 5 8 C4.01 7.67 3.02 7.34 2 7 C2.33 6.01 2.66 5.02 3 4 C-0.11785113 4.64644661 -0.11785113 4.64644661 -1 7 C-1.66 7 -2.32 7 -3 7 C-2.690625 6.401875 -2.38125 5.80375 -2.0625 5.1875 C-0.89790296 2.91043228 -0.89790296 2.91043228 0 0 Z " fill="#2981DD" transform="translate(369,32)"/>
<path d="M0 0 C4.62 0 9.24 0 14 0 C13.67 1.32 13.34 2.64 13 4 C12.01 4 11.02 4 10 4 C10 3.34 10 2.68 10 2 C6.7 2 3.4 2 0 2 C0 1.34 0 0.68 0 0 Z " fill="#0F1B3A" transform="translate(278,32)"/>
<path d="M0 0 C0.99 1.32 1.98 2.64 3 4 C2.01 4.495 2.01 4.495 1 5 C1.09539062 5.77085938 1.19078125 6.54171875 1.2890625 7.3359375 C1.39992188 8.33882812 1.51078125 9.34171875 1.625 10.375 C1.74101563 11.37273437 1.85703125 12.37046875 1.9765625 13.3984375 C1.98429687 14.25695312 1.99203125 15.11546875 2 16 C1.34 16.66 0.68 17.32 0 18 C-0.89385014 14.93537096 -1.13472008 12.18818621 -1.125 9 C-1.12757812 8.154375 -1.13015625 7.30875 -1.1328125 6.4375 C-1.00833711 4.15301056 -0.63877457 2.19008426 0 0 Z " fill="#010924" transform="translate(105,75)"/>
<path d="M0 0 C0.99 0.33 1.98 0.66 3 1 C-3.03478261 7 -3.03478261 7 -6.625 7 C-7.40875 6.67 -8.1925 6.34 -9 6 C-9.928125 5.649375 -10.85625 5.29875 -11.8125 4.9375 C-12.534375 4.628125 -13.25625 4.31875 -14 4 C-14 3.67 -14 3.34 -14 3 C-11.69 3 -9.38 3 -7 3 C-7 3.66 -7 4.32 -7 5 C-4.37098712 3.47793991 -2.15634036 2.15634036 0 0 Z " fill="#498BCE" transform="translate(107,51)"/>
<path d="M0 0 C1.45792884 -0.05399736 2.91642712 -0.09279177 4.375 -0.125 C5.18710937 -0.14820313 5.99921875 -0.17140625 6.8359375 -0.1953125 C9 0 9 0 11 2 C10.34 2 9.68 2 9 2 C9 2.66 9 3.32 9 4 C6.69 3.67 4.38 3.34 2 3 C2 2.34 2 1.68 2 1 C1.34 0.67 0.68 0.34 0 0 Z " fill="#1A2742" transform="translate(269,135)"/>
<path d="M0 0 C0 3.57902656 -0.80400809 4.41601107 -2.875 7.25 C-5.58633208 11.15713184 -7.01457822 14.36851765 -8 19 C-8.33 19 -8.66 19 -9 19 C-8.71251273 11.09410008 -5.58203973 5.58203973 0 0 Z " fill="#0F152B" transform="translate(242,58)"/>
<path d="M0 0 C1.65 0.33 3.3 0.66 5 1 C4.67 2.32 4.34 3.64 4 5 C1 5 -2 5 -5 5 C-4.34 4.01 -3.68 3.02 -3 2 C-2.01 2 -1.02 2 0 2 C0 1.34 0 0.68 0 0 Z " fill="#238BE5" transform="translate(358,50)"/>
<path d="M0 0 C4.51720311 -0.36625971 4.51720311 -0.36625971 6.8125 1.375 C8 3 8 3 8 5 C5.69 4.67 3.38 4.34 1 4 C0.67 2.68 0.34 1.36 0 0 Z " fill="#171D2A" transform="translate(194,140)"/>
<path d="M0 0 C3.63 0 7.26 0 11 0 C11 0.66 11 1.32 11 2 C11.66 2.33 12.32 2.66 13 3 C9.7 3 6.4 3 3 3 C3 2.34 3 1.68 3 1 C2.01 0.67 1.02 0.34 0 0 Z " fill="#21A7E9" transform="translate(329,126)"/>
<path d="M0 0 C2.24587654 1.08134796 4.33545396 2.21503459 6.4375 3.5625 C9.02061794 5.01156616 11.08759012 5.58394145 14 6 C13.67 6.66 13.34 7.32 13 8 C7.64147506 7.60791281 3.85831875 5.6642613 0 2 C0 1.34 0 0.68 0 0 Z " fill="#10162F" transform="translate(240,106)"/>
<path d="M0 0 C0.99 0.33 1.98 0.66 3 1 C2.67 4.3 2.34 7.6 2 11 C1.67 10.01 1.34 9.02 1 8 C0.34 8 -0.32 8 -1 8 C-1.04241723 5.66705225 -1.04092937 3.33297433 -1 1 C-0.67 0.67 -0.34 0.34 0 0 Z " fill="#21243C" transform="translate(287,134)"/>
<path d="M0 0 C5.71658336 -0.45732667 8.48649253 0.47726246 13 4 C12.67 4.66 12.34 5.32 12 6 C11.154375 5.525625 10.30875 5.05125 9.4375 4.5625 C5.87412671 2.94278487 2.87438575 2.38743857 -1 2 C-0.67 1.34 -0.34 0.68 0 0 Z " fill="#212840" transform="translate(260,66)"/>
<path d="M0 0 C0.33 0 0.66 0 1 0 C1.19491452 1.45736087 1.38069358 2.91594593 1.5625 4.375 C1.66691406 5.18710937 1.77132813 5.99921875 1.87890625 6.8359375 C2 9 2 9 1 11 C-2.34373475 10.44271087 -5.03312999 9.64826111 -8 8 C-8 7.34 -8 6.68 -8 6 C-2.125 7.875 -2.125 7.875 -1 9 C-0.67 6.03 -0.34 3.06 0 0 Z " fill="#14192F" transform="translate(276,48)"/>
<path d="M0 0 C0.66 0 1.32 0 2 0 C2 0.66 2 1.32 2 2 C2.66 2 3.32 2 4 2 C3.67 3.65 3.34 5.3 3 7 C1.35 7 -0.3 7 -2 7 C-1.34 4.69 -0.68 2.38 0 0 Z " fill="#1A83F3" transform="translate(364,42)"/>
<path d="M0 0 C0.33 1.65 0.66 3.3 1 5 C-1.31 5 -3.62 5 -6 5 C-5.6875 3.0625 -5.6875 3.0625 -5 1 C-2 0 -2 0 0 0 Z " fill="#88C5FB" transform="translate(378,42)"/>
<path d="M0 0 C0.66 0.66 1.32 1.32 2 2 C3.93257855 2.36831081 3.93257855 2.36831081 6.1328125 2.4140625 C7.34130859 2.47207031 7.34130859 2.47207031 8.57421875 2.53125 C9.83685547 2.57765625 9.83685547 2.57765625 11.125 2.625 C11.97449219 2.66367187 12.82398438 2.70234375 13.69921875 2.7421875 C15.79911684 2.83656494 17.89952891 2.91937586 20 3 C20 3.33 20 3.66 20 4 C12.74 4 5.48 4 -2 4 C-1.34 2.68 -0.68 1.36 0 0 Z " fill="#187EE3" transform="translate(46,40)"/>
<path d="M0 0 C0.99 0.33 1.98 0.66 3 1 C2.34 1 1.68 1 1 1 C0.67 2.98 0.34 4.96 0 7 C0.99 7.33 1.98 7.66 3 8 C1.02 8.99 1.02 8.99 -1 10 C-2 9 -2 9 -2.1875 6.125 C-2 3 -2 3 0 0 Z " fill="#101629" transform="translate(407,142)"/>
<path d="M0 0 C1.65 0 3.3 0 5 0 C5 0.66 5 1.32 5 2 C4.01 2.495 4.01 2.495 3 3 C3.66 3.66 4.32 4.32 5 5 C2.69 5.33 0.38 5.66 -2 6 C-1.34 4.02 -0.68 2.04 0 0 Z " fill="#0A101C" transform="translate(207,145)"/>
<path d="M0 0 C1.485 0.99 1.485 0.99 3 2 C2.25 8.625 2.25 8.625 0 12 C-0.19401633 10.18818595 -0.38004375 8.37551468 -0.5625 6.5625 C-0.66691406 5.55316406 -0.77132813 4.54382813 -0.87890625 3.50390625 C-0.91886719 2.67761719 -0.95882813 1.85132813 -1 1 C-0.67 0.67 -0.34 0.34 0 0 Z " fill="#060F20" transform="translate(302,144)"/>
<path d="M0 0 C-0.33 1.65 -0.66 3.3 -1 5 C-2.32 5.33 -3.64 5.66 -5 6 C-5.33 4.35 -5.66 2.7 -6 1 C-3 0 -3 0 0 0 Z " fill="#1B2038" transform="translate(405,140)"/>
<path d="M0 0 C0.99 0.33 1.98 0.66 3 1 C2.25 5.75 2.25 5.75 0 8 C-1.125 6.25 -1.125 6.25 -2 4 C-1.125 1.75 -1.125 1.75 0 0 Z " fill="#1C253C" transform="translate(171,134)"/>
<path d="M0 0 C0.33 0.99 0.66 1.98 1 3 C-2.07322544 3.91058531 -4.80097361 4.08886184 -8 4 C-8.33 3.34 -8.66 2.68 -9 2 C-2.25 0 -2.25 0 0 0 Z " fill="#0A142C" transform="translate(203,98)"/>
<path d="M0 0 C2.31 0.33 4.62 0.66 7 1 C6.67 1.66 6.34 2.32 6 3 C4.35 3 2.7 3 1 3 C1 3.66 1 4.32 1 5 C1.99 5.33 2.98 5.66 4 6 C2.68 6.33 1.36 6.66 0 7 C0 5.68 0 4.36 0 3 C-0.66 2.67 -1.32 2.34 -2 2 C-1.34 2 -0.68 2 0 2 C0 1.34 0 0.68 0 0 Z " fill="#146BC4" transform="translate(73,47)"/>
<path d="M0 0 C0.66 0 1.32 0 2 0 C2 1.32 2 2.64 2 4 C2.99 4 3.98 4 5 4 C5 5.32 5 6.64 5 8 C4.01 8 3.02 8 2 8 C1.67 8.66 1.34 9.32 1 10 C0.67 6.7 0.34 3.4 0 0 Z " fill="#192132" transform="translate(314,136)"/>
<path d="M0 0 C3 1 3 1 4.5625 3.8125 C5.036875 4.864375 5.51125 5.91625 6 7 C6.5878125 8.175625 6.5878125 8.175625 7.1875 9.375 C7.455625 9.91125 7.72375 10.4475 8 11 C4.71573897 9.94434467 3.42848444 8.38339648 1.75 5.5 C0 2 0 2 0 0 Z " fill="#0D142C" transform="translate(105,96)"/>
<path d="M0 0 C4.43458973 1.3937282 6.87378374 3.60582235 10 7 C9.67 7.99 9.34 8.98 9 10 C8.1646875 8.8553125 8.1646875 8.8553125 7.3125 7.6875 C5.02757355 5.03204493 2.9864388 3.7420893 0 2 C0 1.34 0 0.68 0 0 Z " fill="#121930" transform="translate(147,56)"/>
<path d="M0 0 C1.32 0 2.64 0 4 0 C3.45773019 3.79588866 1.79872437 5.47211993 -1 8 C-1.04241723 5.66705225 -1.04092937 3.33297433 -1 1 C-0.67 0.67 -0.34 0.34 0 0 Z " fill="#05214F" transform="translate(365,32)"/>
<path d="M0 0 C0 0.66 0 1.32 0 2 C-2.97 2 -5.94 2 -9 2 C-9 1.34 -9 0.68 -9 0 C-5.93109813 -1.53445094 -3.29905734 -0.54984289 0 0 Z " fill="#202436" transform="translate(278,153)"/>
<path d="M0 0 C0.33 0 0.66 0 1 0 C1.33 3.63 1.66 7.26 2 11 C1.01 11 0.02 11 -1 11 C-1.02688151 9.35425434 -1.04634123 7.70838587 -1.0625 6.0625 C-1.07410156 5.14597656 -1.08570313 4.22945312 -1.09765625 3.28515625 C-1 1 -1 1 0 0 Z " fill="#0F1531" transform="translate(331,143)"/>
<path d="M0 0 C2.97 0.495 2.97 0.495 6 1 C5.34 2.32 4.68 3.64 4 5 C2.02 4.34 0.04 3.68 -2 3 C-1.34 2.01 -0.68 1.02 0 0 Z " fill="#1A2237" transform="translate(423,140)"/>
<path d="M0 0 C0.93619813 3.15506142 1.1057123 5.96586502 1.0625 9.25 C1.05347656 10.14203125 1.04445313 11.0340625 1.03515625 11.953125 C1.02355469 12.62859375 1.01195312 13.3040625 1 14 C0.01 13.67 -0.98 13.34 -2 13 C-1.85851011 11.3954444 -1.71164314 9.79136233 -1.5625 8.1875 C-1.48128906 7.29417969 -1.40007813 6.40085937 -1.31640625 5.48046875 C-1 3 -1 3 0 0 Z " fill="#2D78BE" transform="translate(27,66)"/>
<path d="M0 0 C1 2 1 2 0.875 4.375 C-0.26735106 7.80205319 -2.08114387 8.97925345 -5 11 C-5 7.58678765 -4.33132534 6.60527115 -2.5 3.8125 C-2.0359375 3.09707031 -1.571875 2.38164063 -1.09375 1.64453125 C-0.7328125 1.10183594 -0.371875 0.55914062 0 0 Z " fill="#217ACB" transform="translate(347,64)"/>
<path d="M0 0 C0.99 0.33 1.98 0.66 3 1 C3.33 3.31 3.66 5.62 4 8 C2.68 8 1.36 8 0 8 C0 5.36 0 2.72 0 0 Z " fill="#0C1326" transform="translate(397,147)"/>
<path d="M0 0 C0.99 0 1.98 0 3 0 C3 1.98 3 3.96 3 6 C2.01 6.33 1.02 6.66 0 7 C-0.38133299 5.0085944 -0.71325582 3.00720923 -1 1 C-0.67 0.67 -0.34 0.34 0 0 Z " fill="#1D273A" transform="translate(227,135)"/>
<path d="M0 0 C1.65 0 3.3 0 5 0 C5 1.65 5 3.3 5 5 C4.01 5 3.02 5 2 5 C2 4.34 2 3.68 2 3 C1.34 3 0.68 3 0 3 C0 2.01 0 1.02 0 0 Z " fill="#141F35" transform="translate(134,136)"/>
<path d="M0 0 C2.76223278 2.76223278 2.57856291 5.20706617 3 9 C1.68 9.33 0.36 9.66 -1 10 C-0.67 6.7 -0.34 3.4 0 0 Z " fill="#116FD6" transform="translate(28,63)"/>
<path d="M0 0 C-1.24403138 3.73209414 -3.17243898 5.30708475 -6 8 C-6.8971875 8.8971875 -6.8971875 8.8971875 -7.8125 9.8125 C-8.204375 10.204375 -8.59625 10.59625 -9 11 C-8.72482232 6.32197941 -6.66806114 4.25361247 -3.47265625 1.13671875 C-2 0 -2 0 0 0 Z " fill="#0F1839" transform="translate(117,57)"/>
<path d="M0 0 C0 1.65 0 3.3 0 5 C-2.4375 4.625 -2.4375 4.625 -5 4 C-5.33 3.34 -5.66 2.68 -6 2 C-2.25 0 -2.25 0 0 0 Z " fill="#151C32" transform="translate(319,151)"/>
<path d="M0 0 C0.66 0.99 1.32 1.98 2 3 C0.66666667 9.33333333 0.66666667 9.33333333 -2 12 C-1.85904936 10.3745692 -1.71207913 8.74965949 -1.5625 7.125 C-1.48128906 6.22007813 -1.40007813 5.31515625 -1.31640625 4.3828125 C-1 2 -1 2 0 0 Z " fill="#1E65BF" transform="translate(53,76)"/>
<path d="M0 0 C0.99 0 1.98 0 3 0 C3 1.98 3 3.96 3 6 C2.01 6.33 1.02 6.66 0 7 C-1 6 -1 6 -1.125 3.5 C-1 1 -1 1 0 0 Z " fill="#151B32" transform="translate(307,140)"/>
<path d="M0 0 C3.94120709 0.56302958 6.7508723 1.6791945 10 4 C10 4.66 10 5.32 10 6 C5.56909529 4.79157144 3.01887244 3.48331435 0 0 Z " fill="#3985D2" transform="translate(48,134)"/>
<path d="M0 0 C0.66 0.33 1.32 0.66 2 1 C2 2.98 2 4.96 2 7 C0.68 7 -0.64 7 -2 7 C-2 5.35 -2 3.7 -2 2 C-1.34 2 -0.68 2 0 2 C0 1.34 0 0.68 0 0 Z " fill="#228DF4" transform="translate(339,104)"/>
<path d="M0 0 C3.3 0.33 6.6 0.66 10 1 C10 1.66 10 2.32 10 3 C6.7 2.67 3.4 2.34 0 2 C0 1.34 0 0.68 0 0 Z " fill="#172138" transform="translate(257,52)"/>
<path d="M0 0 C1.32 0.33 2.64 0.66 4 1 C2.35 3.64 0.7 6.28 -1 9 C-2.25541557 5.23375329 -1.37061958 3.62811066 0 0 Z " fill="#012150" transform="translate(354,48)"/>
<path d="M0 0 C0 1.32 0 2.64 0 4 C-2.31 3.67 -4.62 3.34 -7 3 C-7 2.34 -7 1.68 -7 1 C-2.25 0 -2.25 0 0 0 Z " fill="#202333" transform="translate(359,143)"/>
<path d="M0 0 C0.99 0.33 1.98 0.66 3 1 C1.68 3.31 0.36 5.62 -1 8 C-1.99 8 -2.98 8 -4 8 C-2.95833333 6.20963542 -1.91666667 4.41927083 -0.875 2.62890625 C0.07886962 1.16134961 0.07886962 1.16134961 0 0 Z " fill="#0C172D" transform="translate(157,97)"/>
<path d="M0 0 C0 0.66 0 1.32 0 2 C-0.66 2 -1.32 2 -2 2 C-2.66 3.32 -3.32 4.64 -4 6 C-4.99 5.67 -5.98 5.34 -7 5 C-6.34 4.67 -5.68 4.34 -5 4 C-5 3.01 -5 2.02 -5 1 C-2 0 -2 0 0 0 Z " fill="#3586D3" transform="translate(369,48)"/>
<path d="M0 0 C1.98 0 3.96 0 6 0 C6.33 0.99 6.66 1.98 7 3 C4.6875 3.625 4.6875 3.625 2 4 C1.01 3.34 0.02 2.68 -1 2 C-0.67 1.34 -0.34 0.68 0 0 Z " fill="#181F2E" transform="translate(193,152)"/>
<path d="M0 0 C-0.33 0.99 -0.66 1.98 -1 3 C-3.31 3 -5.62 3 -8 3 C-6.23110084 -0.53779831 -3.70375662 0 0 0 Z " fill="#242940" transform="translate(139,151)"/>
<path d="M0 0 C0.33 0.66 0.66 1.32 1 2 C-1.8125 2.625 -1.8125 2.625 -5 3 C-5.99 2.34 -6.98 1.68 -8 1 C-5.29120665 -0.35439668 -2.99066732 -0.06501451 0 0 Z " fill="#1D2232" transform="translate(415,140)"/>
<path d="M0 0 C1.32 0.99 2.64 1.98 4 3 C3.67 3.99 3.34 4.98 3 6 C2.01 6 1.02 6 0 6 C-0.66 4.35 -1.32 2.7 -2 1 C-1.34 0.67 -0.68 0.34 0 0 Z " fill="#1E68C7" transform="translate(115,120)"/>
<path d="M0 0 C2.76276177 0.52268466 5.3260876 1.10869587 8 2 C8 2.66 8 3.32 8 4 C6.68 4.33 5.36 4.66 4 5 C4 4.34 4 3.68 4 3 C2.68 2.34 1.36 1.68 0 1 C0 0.67 0 0.34 0 0 Z " fill="#0D1633" transform="translate(185,97)"/>
<path d="M0 0 C0.66 0 1.32 0 2 0 C2.33 1.98 2.66 3.96 3 6 C2.01 6.33 1.02 6.66 0 7 C0 4.69 0 2.38 0 0 Z " fill="#248BF8" transform="translate(350,62)"/>
<path d="M0 0 C0.99 0.33 1.98 0.66 3 1 C3 2.98 3 4.96 3 7 C2.01 7.33 1.02 7.66 0 8 C-0.79953138 4.71303767 -1.09658936 3.28976808 0 0 Z " fill="#121C3E" transform="translate(389,55)"/>
<path d="M0 0 C0.99 0 1.98 0 3 0 C2.67 1.98 2.34 3.96 2 6 C0.68 5.34 -0.64 4.68 -2 4 C-1.34 2.68 -0.68 1.36 0 0 Z " fill="#5AAEF4" transform="translate(383,41)"/>
<path d="M0 0 C1.5 1.375 1.5 1.375 3 3 C3 3.66 3 4.32 3 5 C1.02 5.99 1.02 5.99 -1 7 C-1.33 5.02 -1.66 3.04 -2 1 C-1.34 0.67 -0.68 0.34 0 0 Z " fill="#030926" transform="translate(301,34)"/>
<path d="M0 0 C0.33 0.66 0.66 1.32 1 2 C1.66 2 2.32 2 3 2 C2.67 2.99 2.34 3.98 2 5 C0.35 4.67 -1.3 4.34 -3 4 C-3 3.01 -3 2.02 -3 1 C-2.01 0.67 -1.02 0.34 0 0 Z " fill="#209CF1" transform="translate(44,36)"/>
<path d="M0 0 C0.99 0.33 1.98 0.66 3 1 C3 2.32 3 3.64 3 5 C1.68 4.67 0.36 4.34 -1 4 C-0.67 2.68 -0.34 1.36 0 0 Z " fill="#192236" transform="translate(307,134)"/>
<path d="M0 0 C2 1.25 2 1.25 4 3 C4 4.32 4 5.64 4 7 C3.01 7 2.02 7 1 7 C0.67 4.69 0.34 2.38 0 0 Z " fill="#4B89C4" transform="translate(122,38)"/>
<path d="M0 0 C3 1 3 1 3 1 Z " fill="#000000" transform="translate(132,133)"/>
<path d="" fill="#000000" transform="translate(0,0)"/>
<path d="" fill="#000000" transform="translate(0,0)"/>
<path d="" fill="#000000" transform="translate(0,0)"/>
<path d="" fill="#000000" transform="translate(0,0)"/>
</svg>
